<svg xmlns="http://www.w3.org/2000/svg" width="160" height="172.998" viewBox="0 0 160 172.998">
  <g id="Group_68" data-name="Group 68" transform="translate(-1477 -5108.002)">
    <g id="Artboard_12" data-name="Artboard 12" transform="translate(1471.52 5062.921)">
      <path id="Path_94" data-name="Path 94" d="M60.973,45.084a2.883,2.883,0,0,1,1.4,2.846c-.049,4.736-.019,9.471-.022,14.207,0,.273-.008.547-.019.82-.041,1.137-.577,1.824-1.769,1.783s-1.679-.782-1.682-1.895q-.012-5.943-.005-11.883a27.049,27.049,0,0,0-.019-2.865,2.7,2.7,0,0,1,1.564-3.01h.547Z" fill="#13378e"/>
      <path id="Path_95" data-name="Path 95" d="M102.533,45.084a2.872,2.872,0,0,1,1.575,3.01c-.082,4.689-.03,9.378-.033,14.068a6.04,6.04,0,0,1-.025,1.091,1.624,1.624,0,0,1-1.8,1.49,1.468,1.468,0,0,1-1.591-1.515c-.057-1.545-.052-3.1-.057-4.643-.005-3.505.038-7.013-.022-10.516a2.953,2.953,0,0,1,1.405-2.983h.547Z" fill="#13378e"/>
      <path id="Path_96" data-name="Path 96" d="M11.484,94.027a2.867,2.867,0,0,1,3.01-1.575c4.826.082,9.652.027,14.48.036,1.444,0,2.157.563,2.171,1.684a1.6,1.6,0,0,1-1.788,1.772c-1.775.038-3.552.033-5.326.036-3.188.005-6.376-.036-9.562.019a2.975,2.975,0,0,1-2.983-1.422V94.03Z" fill="#13378e"/>
      <path id="Path_97" data-name="Path 97" d="M151.475,94.574A3,3,0,0,1,148.492,96c-4.645-.046-9.291-.019-13.934-.019-.317,0-.637-.011-.954-.027-1.124-.06-1.829-.58-1.783-1.777.046-1.178.777-1.682,1.892-1.684,5.009-.005,10.018.044,15.027-.036a2.738,2.738,0,0,1,2.737,1.575v.547Z" fill="#13378e"/>
      <path id="Path_98" data-name="Path 98" d="M151.475,108.518a3.138,3.138,0,0,1-3.013,1.345c-4.643-.063-9.288-.025-13.931-.025-.364,0-.727,0-1.091-.019a1.695,1.695,0,0,1,.033-3.388c5.373-.022,10.745-.06,16.113.06.64.014,1.26.965,1.889,1.482v.547Z" fill="#13378e"/>
      <path id="Path_99" data-name="Path 99" d="M11.484,135.587a2.859,2.859,0,0,1,2.849-1.389c4.733.057,9.469.022,14.2.025.273,0,.547.008.82.014,1.148.022,1.818.569,1.783,1.755a1.59,1.59,0,0,1-1.758,1.673c-5.28.019-10.562.066-15.842-.057-.7-.016-1.37-.957-2.053-1.471v-.547Z" fill="#13378e"/>
      <path id="Path_100" data-name="Path 100" d="M151.475,136.134a2.876,2.876,0,0,1-3.01,1.575c-4.826-.082-9.652-.038-14.48-.027-1.05,0-1.922-.232-2.141-1.422-.23-1.241.457-2,1.892-2.023,2.915-.036,5.829-.016,8.741-.019,2,0,4.008.055,6.01-.019a2.9,2.9,0,0,1,2.986,1.386v.547Z" fill="#13378e"/>
      <path id="Path_101" data-name="Path 101" d="M60.426,185.076a2.871,2.871,0,0,1-1.575-3.008c.082-4.689.03-9.378.033-14.07a6.04,6.04,0,0,1,.025-1.091,1.62,1.62,0,0,1,1.8-1.49,1.466,1.466,0,0,1,1.591,1.515c.057,1.545.055,3.1.057,4.643.005,3.505-.038,7.013.025,10.519a2.972,2.972,0,0,1-1.405,2.986h-.547Z" fill="#13378e"/>
      <path id="Path_102" data-name="Path 102" d="M74.371,185.076a2.687,2.687,0,0,1-1.589-2.844c.077-4.87.027-9.742.033-14.612,0-1.534.58-2.239,1.761-2.209,1.129.03,1.649.681,1.651,2.174.011,4.826-.033,9.652.03,14.478a3.138,3.138,0,0,1-1.343,3.016h-.547Z" fill="#13378e"/>
      <path id="Path_103" data-name="Path 103" d="M101.986,185.076a2.973,2.973,0,0,1-1.405-2.983c.055-4.645.022-9.288.022-13.934,0-.32.008-.637.019-.957.041-1.135.571-1.824,1.766-1.783s1.682.779,1.684,1.892q.012,5.4.005,10.792c0,1.321-.09,2.649.025,3.959a2.743,2.743,0,0,1-1.567,3.01h-.547Z" fill="#13378e"/>
      <path id="Path_104" data-name="Path 104" d="M74.917,45.084A3.131,3.131,0,0,1,76.26,48.1c-.063,4.87-.016,9.739-.033,14.609-.005,1.416-.626,2.1-1.783,2.034a1.539,1.539,0,0,1-1.613-1.66c-.022-5.37-.06-10.743.06-16.11.014-.64.965-1.258,1.482-1.887h.547Z" fill="#13378e"/>
      <path id="Path_105" data-name="Path 105" d="M88.589,45.084a2.689,2.689,0,0,1,1.589,2.844c-.077,4.913-.038,9.832-.025,14.746,0,.949-.219,1.731-1.233,2.012-1.252.347-2.166-.4-2.179-1.843-.03-3.049-.014-6.1-.014-9.149,0-1.867.066-3.735-.022-5.6a3.028,3.028,0,0,1,1.337-3.016h.547Z" fill="#13378e"/>
      <path id="Path_106" data-name="Path 106" d="M11.484,107.971a2.672,2.672,0,0,1,2.841-1.589c4.913.074,9.83.038,14.746.025.946,0,1.733.216,2.015,1.233.345,1.25-.4,2.168-1.84,2.185-2.775.033-5.553.014-8.328.016-2.138,0-4.282-.063-6.417.022a3.061,3.061,0,0,1-3.016-1.345v-.547Z" fill="#13378e"/>
      <path id="Path_107" data-name="Path 107" d="M11.484,121.642A3.115,3.115,0,0,1,14.5,120.3c4.643.06,9.285.025,13.928.025.364,0,.727,0,1.091.019a1.518,1.518,0,0,1,1.619,1.638,1.537,1.537,0,0,1-1.654,1.75c-5.37.025-10.743.063-16.11-.057-.64-.014-1.26-.965-1.889-1.482v-.547Z" fill="#13378e"/>
      <path id="Path_108" data-name="Path 108" d="M151.475,122.189a2.691,2.691,0,0,1-2.844,1.589c-4.916-.077-9.832-.038-14.748-.025-.949,0-1.731-.219-2.012-1.236-.345-1.252.4-2.166,1.843-2.182,2.868-.033,5.736-.014,8.6-.016,2.048,0,4.1.063,6.144-.022a3.052,3.052,0,0,1,3.013,1.343v.547Z" fill="#13378e"/>
      <path id="Path_109" data-name="Path 109" d="M88.042,185.076a3.114,3.114,0,0,1-1.34-3.013c.063-4.87.019-9.742.033-14.612.005-1.422.618-2.1,1.78-2.034a1.54,1.54,0,0,1,1.616,1.66c.022,5.37.06,10.743-.06,16.113-.014.64-.965,1.26-1.482,1.889h-.547Z" fill="#13378e"/>
      <path id="Path_110" data-name="Path 110" d="M124.97,115.1c0,10.478.016,20.955-.005,31.433-.011,5.43-2.507,9.493-7.065,11.235a13.769,13.769,0,0,1-4.782.908q-31.638.086-63.278.033a11.432,11.432,0,0,1-11.571-8.924A14.909,14.909,0,0,1,38,146.4q-.021-31.3-.005-62.594C38,77.49,41.289,73.165,47.064,71.872a13.158,13.158,0,0,1,2.846-.2c21.048-.011,42.093.1,63.138-.074A11.72,11.72,0,0,1,125,83.528c-.139,10.521-.036,21.045-.036,31.569Zm-43.608,40q16,0,31.988,0a7.793,7.793,0,0,0,8.142-8.036q.016-31.921,0-63.838A7.9,7.9,0,0,0,113.38,75.1q-31.921-.037-63.838,0a7.9,7.9,0,0,0-8.074,8.17q-.012,31.851,0,63.7a7.8,7.8,0,0,0,8.178,8.137q15.856.008,31.714,0Z" fill="#13378e"/>
      <path id="Path_112" data-name="Path 112" d="M47.641,115.22c0-8.427.134-16.856-.052-25.281a8.559,8.559,0,0,1,8.758-8.722q25.145.185,50.29,0a8.59,8.59,0,0,1,8.73,8.749q-.209,25.211,0,50.427a8.441,8.441,0,0,1-8.419,8.61q-25.486-.1-50.974,0a8.383,8.383,0,0,1-8.386-8.5c.164-8.424.049-16.854.049-25.281Zm33.8,30.3h25.015c3.522,0,5.436-1.878,5.438-5.373q.012-25.018,0-50.033c0-3.412-1.895-5.392-5.3-5.395q-25.153-.041-50.307,0c-3.336.005-5.225,2-5.228,5.329q-.012,25.084,0,50.17c0,3.407,1.936,5.3,5.367,5.3q12.509.008,25.015,0Z" fill="#13378e"/>
      <path id="Path_114" data-name="Path 114" d="M77.25,100.4a2.185,2.185,0,0,1,2.507,1.816c2.155,7.131,4.353,14.248,6.529,21.371.4,1.326.1,1.969-1.069,2.294-1.2.336-1.8-.022-2.2-1.332l-.041-.131c-.459-1.364-.541-3.213-1.49-3.954-.9-.7-2.7-.243-4.107-.271-1.094-.022-2.193.068-3.278-.025-1.044-.09-1.479.383-1.7,1.315-.227.971-.536,1.925-.818,2.882-.446,1.523-1.025,1.9-2.3,1.493-1.137-.361-1.381-1.012-.919-2.535q1.4-4.63,2.819-9.255c1.211-3.954,2.447-7.9,3.628-11.858a2.115,2.115,0,0,1,2.433-1.813Zm-3.71,17.1H81c-1.209-4.151-2.365-8.121-3.522-12.091l-.421.008c-1.157,3.965-2.31,7.932-3.522,12.082Z" fill="#13378e"/>
      <path id="Path_115" data-name="Path 115" d="M89.756,113.243c0-3.642.038-7.287-.022-10.929-.019-1.26.5-1.736,1.687-1.725,1.143.011,1.739.41,1.731,1.7-.041,7.284-.016,14.571-.022,21.857,0,1.433-.4,1.794-1.755,1.81-1.244.016-1.651-.588-1.638-1.783.046-3.642.016-7.284.016-10.929Z" fill="#13378e"/>
    </g>
    <line id="Line_2" data-name="Line 2" x2="154" transform="translate(1480 5278)" fill="none" stroke="#5fbc38" stroke-linecap="round" stroke-width="6"/>
  </g>
</svg>
