<svg xmlns="http://www.w3.org/2000/svg" width="196.647" height="170.834" viewBox="0 0 196.647 170.834">
  <g id="Group_69" data-name="Group 69" transform="translate(-868.58 -5110.166)">
    <g id="Artboard_15" data-name="Artboard 15" transform="translate(855.619 5058.85)">
      <path id="Path_151" data-name="Path 151" d="M179.465,91.335c-.19.762-.394,1.52-.562,2.289-1.208,5.517-5.78,9.527-10.991,9.627q-4.525.084-4.525,5.012c0,11.359-.08,22.718.022,34.073.062,6.828-4.1,11.162-7.988,12.546-7.466,2.654-15.177-3.444-15.217-12.125-.055-12.293-.015-24.586-.015-36.88,0-2.6-.011-2.722-2.43-2.586-4.711.265-8.663-1.239-11.342-5.685a13.048,13.048,0,0,1-.631-12.911c2.113-4.439,5.576-6.816,10.17-6.844,10.579-.056,21.155-.036,31.734-.008,5.634.016,10.258,4.31,11.313,10.4a11.475,11.475,0,0,0,.463,1.492v1.6ZM156.6,121.414h.007c0-7.085-.011-14.166.007-21.25.007-2.891,1.281-4.27,3.919-4.294,2.127-.02,4.255.016,6.386-.012,3.241-.04,5.339-2.061,5.39-5.144a4.993,4.993,0,0,0-5.288-5.457q-15.234-.072-30.464,0a5.3,5.3,0,1,0,.095,10.6c2.248.04,4.5-.016,6.747.02,2.266.036,3.43,1.3,3.573,3.813.04.734.026,1.472.026,2.205q0,19.246.015,38.491a17.788,17.788,0,0,0,.339,3.973,4.779,4.779,0,0,0,5.091,3.6,5.136,5.136,0,0,0,4.146-5.289c.044-7.085.015-14.166.015-21.25Z" transform="translate(30.143 4.837)" fill="#13378e"/>
      <path id="Path_152" data-name="Path 152" d="M12.961,91.016c.179-.689.39-1.371.529-2.068,1.314-6.658,7.295-11.732,13.462-11.4,6.543.349,11.886,5.812,12.575,12.9.153,1.587.252,3.191.252,4.786q.027,21.921-.015,43.842a25.279,25.279,0,0,1-.6,5.732c-1.682,7.031-7.153,11.059-14.185,10.63-5.529-.341-10.528-5.543-11.557-12a10.476,10.476,0,0,0-.46-1.5V91.02Zm19.848,25.661q0-12.127,0-24.25c-.007-4.329-2.638-7.243-6.452-7.215-3.711.028-6.229,2.93-6.233,7.227q-.011,24.152.007,48.3a8.774,8.774,0,0,0,.252,2.361c.934,3.283,3.992,5.427,6.9,4.914a6.873,6.873,0,0,0,5.525-7.091q.027-12.127.007-24.25Z" transform="translate(0 4.785)" fill="#13378e"/>
      <path id="Path_153" data-name="Path 153" d="M87.363,81.47a30.935,30.935,0,1,1-30.905,30.909C56.308,95.289,70.719,81.149,87.363,81.47Zm24.1,30.851A24.105,24.105,0,1,0,87.41,136.508a24.128,24.128,0,0,0,24.052-24.187Z" transform="translate(11.976 9.001)" fill="#13378e"/>
      <path id="Path_154" data-name="Path 154" d="M91.5,167.68c-15.889-.051-27.836-3.532-38.791-10.437-1.222-.77-2.259-1.649-2.3-3.262a3.335,3.335,0,0,1,4.448-3.284,11.741,11.741,0,0,1,2.076,1.113,58.287,58.287,0,0,0,27.063,8.78c17.691,1.179,32.931-4.419,45.955-16.378a6.028,6.028,0,0,1,3.74-1.675c.923.022,2.062,1.317,2.66,2.314.8,1.328-.033,2.576-1.018,3.565a65.769,65.769,0,0,1-14.374,10.824c-8.911,5.021-20.607,8.583-29.468,8.441Z" transform="translate(11.152 23.632)" fill="#13378e"/>
      <path id="Path_155" data-name="Path 155" d="M88.347,51.316c13.889.223,25.38,3.2,35.934,9.535,2.091,1.255,2.679,3.087,1.638,4.886-1.029,1.781-2.981,2.237-5.058,1.014a59.232,59.232,0,0,0-21.034-7.74C82.4,56.294,66.74,60.428,52.851,71.27c-1.671,1.306-3.189,2.81-4.784,4.215-1.679,1.482-3.693,1.555-5.051.186-1.431-1.438-1.317-3.489.372-5.145A64.427,64.427,0,0,1,78.954,52.374c3.642-.588,7.342-.836,9.393-1.058Z" transform="translate(8.595 0)" fill="#13378e"/>
      <path id="Path_156" data-name="Path 156" d="M88.692,152.054c-13.812-.394-25.293-4.835-34.8-14.093-1.255-1.222-1.781-2.62-.916-4.262a3.086,3.086,0,0,1,3.642-1.752,5.946,5.946,0,0,1,2.412,1.514,40.986,40.986,0,0,0,21.242,10.867c13.568,2.365,25.607-.927,36.011-10.013.595-.518,1.131-1.109,1.748-1.595a3.386,3.386,0,0,1,4.58,4.988,52.258,52.258,0,0,1-5.226,4.532,47.135,47.135,0,0,1-25.18,9.492c-1.39.1-2.777.255-3.522.325Z" transform="translate(11.195 21.68)" fill="#13378e"/>
      <path id="Path_157" data-name="Path 157" d="M88.229,66.361A48.151,48.151,0,0,1,121.86,79.812a10.131,10.131,0,0,1,1.011,1.047,3.391,3.391,0,0,1-.088,4.492,3.486,3.486,0,0,1-4.638.277c-1.653-1.336-3.178-2.835-4.872-4.116A42.087,42.087,0,0,0,59.25,84.643a6.214,6.214,0,0,1-2.2,1.544,3.2,3.2,0,0,1-3.967-1.4,3,3,0,0,1,.555-4.138,93.409,93.409,0,0,1,9.776-7.558,46.275,46.275,0,0,1,24.808-6.722Z" transform="translate(11.184 2.745)" fill="#13378e"/>
      <path id="Path_158" data-name="Path 158" d="M48.841,146A3.369,3.369,0,0,1,45.5,149.37a3.588,3.588,0,0,1-3.438-3.726,3.394,3.394,0,0,1,3.445-3.277A3.528,3.528,0,0,1,48.838,146Z" transform="translate(7.186 23.601)" fill="#13378e"/>
      <path id="Path_159" data-name="Path 159" d="M120.966,67.02a3.5,3.5,0,0,1,3.423,3.492,3.4,3.4,0,0,1-3.62,3.237,3.555,3.555,0,0,1-3.365-3.383A3.476,3.476,0,0,1,120.966,67.02Z" transform="translate(25.799 2.867)" fill="#13378e"/>
      <path id="Path_163" data-name="Path 163" d="M84.533,122.808A13.215,13.215,0,1,1,97.86,109.791a13.124,13.124,0,0,1-13.327,13.017Zm.117-6.751a6.528,6.528,0,0,0,6.434-6.372,6.437,6.437,0,1,0-12.875,0,6.528,6.528,0,0,0,6.441,6.364Z" transform="translate(14.892 11.715)" fill="#13378e"/>
    </g>
    <line id="Line_2" data-name="Line 2" x2="154" transform="translate(879 5278)" fill="none" stroke="#5fbc38" stroke-linecap="round" stroke-width="6"/>
  </g>
</svg>
