<svg xmlns="http://www.w3.org/2000/svg" width="162.992" height="169.992" viewBox="0 0 162.992 169.992">
  <g id="Group_70" data-name="Group 70" transform="translate(-275 -5111.008)">
    <g id="Artboard_14" data-name="Artboard 14" transform="translate(287.014 5067.851)">
      <path id="Path_139" data-name="Path 139" d="M22.2,183.151a2.536,2.536,0,0,0-.427-.328,1.632,1.632,0,0,1-1.014-2.223,2.917,2.917,0,0,1,1.933-1.373,26.533,26.533,0,0,1,4.911-.044c1.088.066,1.512-.372,1.772-1.356,1.255-4.744,2.565-9.472,3.85-14.205.52-1.909.954-2.242,2.972-2.245q3.2-.005,3.2-3.15c0-1.777-.025-3.555.005-5.332a1.576,1.576,0,0,0-1.075-1.657c-6.85-3.188-10.415-9.127-9.986-16.65a16.478,16.478,0,0,1,.689-3.464,1.78,1.78,0,0,1,2.455-1.463c1.055.312,1.474,1.217,1.1,2.521a12.55,12.55,0,0,0,1.81,11.175,12.788,12.788,0,0,0,14.891,4.709c7.216-2.636,14.369-5.447,21.547-8.187q8.728-3.335,17.454-6.68a12.7,12.7,0,0,0,8.416-9.767,12.862,12.862,0,0,0-9.723-15.009,13.262,13.262,0,0,0-7.768.626q-19.368,7.407-38.732,14.82c-.637.243-1.23.6-1.873.826a1.751,1.751,0,0,1-2.439-.826,1.682,1.682,0,0,1,.842-2.513c3-1.3,6.032-2.524,9.067-3.743,1.367-.55,2.767-1.023,4.473-1.649-.618-.462-.954-.727-1.307-.971C38.992,107.882,28.757,100.74,18.467,93.68c-4.055-2.781-6.691-6.357-7.186-11.345a4.327,4.327,0,0,0-.3-.9V80.341c.189-.927.35-1.862.574-2.781,1.772-7.265,7.375-11.577,14.82-11.312a17.62,17.62,0,0,1,7.891,2.387,6.366,6.366,0,0,0,2.912.815q30.622.07,61.245.036c3.629,0,5.138-1.334,5.595-4.922a11.714,11.714,0,0,1,.273-1.605,1.626,1.626,0,0,1,2.116-1.2A1.658,1.658,0,0,1,107.92,63.7a49.456,49.456,0,0,1-.85,5.379,2.92,2.92,0,0,1-1.263,1.5c-1.944,1.269-3.959,2.428-5.928,3.659-3.175,1.988-4.383,4.651-3.642,7.935a8.167,8.167,0,0,0,7.022,6.357,8.447,8.447,0,0,0,4.03-.935,58,58,0,0,0,5.975-3.568,3.634,3.634,0,0,1,3.566-.421c5.165,1.884,10.385,3.629,15.58,5.43,3.218,1.116,4.895.443,6.45-2.595,2.551-4.982,5.121-9.953,7.651-14.946a3.829,3.829,0,0,0-.6-4.662,4,4,0,0,0-4.618-1.006,5.812,5.812,0,0,0-2.116,2.182c-1.851,3.393-3.56,6.869-5.335,10.306-.911,1.764-1.548,2.023-3.4,1.384-4.6-1.591-9.177-3.224-13.784-4.782a2.111,2.111,0,0,1-1.7-2.532c.5-3.6.987-7.2,1.493-10.8.208-1.485.465-2.961.67-4.443a1.968,1.968,0,0,1,2.248-1.859c4.055.011,8.11.025,12.168,0a4.11,4.11,0,0,0,3.659-6.177,3.459,3.459,0,0,0-3.216-1.944c-6.106-.008-12.212-.025-18.318,0-2.229.008-3.694,1.58-4.036,4.181-.071.539-.131,1.08-.232,1.613a1.671,1.671,0,0,1-2.059,1.5,1.832,1.832,0,0,1-1.638-2.146c.4-5.217,2.226-7.479,7.2-8.933a1.463,1.463,0,0,0,.347-.216h12.031a17.147,17.147,0,0,0,1.736.227c1.955.057,3.916.044,5.871.118a5.981,5.981,0,0,1,4.334,2.029,8,8,0,0,1,1.523,8.766A6.871,6.871,0,0,1,131.9,59c-3.005.022-6.01,0-9.015-.005-2.368,0-2.33.005-2.625,2.341-.38,2.97-.785,5.936-1.277,8.889-.175,1.05.052,1.572,1.1,1.917q4.791,1.575,9.524,3.32c.99.366,1.436.145,1.887-.774,1.488-3.019,3.008-6.024,4.618-8.977a7.8,7.8,0,0,1,8.463-3.861,7.691,7.691,0,0,1,6.062,6.264,7.741,7.741,0,0,0,.342,1.023v1.094c-2.931,5.991-5.969,11.933-8.758,17.989a8.425,8.425,0,0,1-10.9,4.452c-4.646-1.835-9.442-3.287-14.148-4.974a3.267,3.267,0,0,0-3.276.372c-2.562,1.723-5.149,3.475-8.282,4.03a14.987,14.987,0,0,1-2.576.191q-16.131.021-32.26.008H69.226l-.12.4c.41.309.812.632,1.236.924,4.752,3.295,9.491,6.614,14.282,9.855a8.784,8.784,0,0,0,2.953,1.241c6.83,1.526,12.351,7.539,13.016,14,.941,9.125-4.43,15.4-10.1,17.642q-7.038,2.789-14.142,5.409a1.933,1.933,0,0,0-1.523,2.149c.074,5.286.063,10.571.008,15.857-.014,1.2.243,1.684,1.567,1.641,4.216-.137,3.924-.18,5.018,3.823,1.138,4.162,2.305,8.315,3.371,12.5a1.618,1.618,0,0,0,1.98,1.457c1.313-.1,2.641-.016,3.962-.025,1.132-.008,2.272.049,2.7,1.337.468,1.392-.47,2.084-1.526,2.658H22.2Zm57.518-78.31c-.457-.386-.738-.662-1.058-.883Q55.431,87.86,32.191,71.775a10.456,10.456,0,0,0-5.605-1.9,11.059,11.059,0,0,0-11.063,7.459,10.9,10.9,0,0,0,4.361,12.715C31.2,97.923,42.557,105.752,53.878,113.63a2.118,2.118,0,0,0,2.248.243c5.162-2.015,10.35-3.97,15.529-5.947,2.62-1,5.239-2,8.069-3.084ZM41.231,73.232c.569.506.8.763,1.08.957q9.991,6.932,20,13.83a3.554,3.554,0,0,0,1.892.569q14.7.053,29.389.019a13.9,13.9,0,0,0,1.414-.161,12.745,12.745,0,0,1-2.721-7.634c-.019-2.77,1.124-5.143,2.65-7.58H41.231ZM32.924,179.08H81.2c-.1-.528-.148-.965-.262-1.386-.984-3.637-2.037-7.254-2.939-10.91a1.915,1.915,0,0,0-2.248-1.706c-10.426.049-20.852.027-31.276.027-2.141,0-4.279.036-6.42-.011a1.475,1.475,0,0,0-1.712,1.307c-.394,1.676-.9,3.328-1.348,4.993-.673,2.488-1.34,4.979-2.067,7.686Zm10.229-26.332c0,2.4.06,4.75-.025,7.1-.041,1.176.276,1.564,1.509,1.556q12.5-.082,25,0c1.271.008,1.523-.487,1.515-1.6-.036-4.78-.011-9.562-.022-14.342a14.875,14.875,0,0,0-.18-1.589c-2.732,1.039-5.239,2.1-7.815,2.953-6.546,2.171-12.6,5.986-19.977,5.92Z" fill="#13378e"/>
      <path id="Path_141" data-name="Path 141" d="M99.521,81.108a1.7,1.7,0,0,1-1.8-1.659,1.892,1.892,0,0,1,1.764-1.895,1.8,1.8,0,0,1,1.693,1.8,1.628,1.628,0,0,1-1.662,1.759Z" transform="translate(3.994 1.585)" fill="#13378e"/>
      <path id="Path_142" data-name="Path 142" d="M80.375,108.589a9.112,9.112,0,1,1-9.152,9.042,8.98,8.98,0,0,1,9.152-9.042Zm-5.616,9.125a5.655,5.655,0,0,0,5.577,5.574,5.762,5.762,0,0,0,5.564-5.621,5.57,5.57,0,0,0-11.14.047Z" transform="translate(3.127 3.397)" fill="#13378e"/>
      <path id="Path_148" data-name="Path 148" d="M25.479,72.25a7.331,7.331,0,0,1,7.4,7.333A7.456,7.456,0,0,1,25.4,87.02a7.339,7.339,0,0,1-7.278-7.456,7.184,7.184,0,0,1,7.362-7.312Zm.016,3.53a3.806,3.806,0,0,0-.133,7.61,3.787,3.787,0,0,0,3.891-3.727A3.846,3.846,0,0,0,25.5,75.78Z" transform="translate(0 1.467)" fill="#13378e"/>
    </g>
    <line id="Line_2" data-name="Line 2" x2="154" transform="translate(278 5278)" fill="none" stroke="#5fbc38" stroke-linecap="round" stroke-width="6"/>
  </g>
</svg>
