<svg xmlns="http://www.w3.org/2000/svg" width="160" height="186.229" viewBox="0 0 160 186.229">
  <g id="Group_71" data-name="Group 71" transform="translate(-1477 -5507.771)">
    <g id="Artboard_11" data-name="Artboard 11" transform="translate(1470.039 5451.116)">
      <path id="Path_83" data-name="Path 83" d="M116.442,126.665c0,4.232.027,8.461-.021,12.692a1.979,1.979,0,0,0,1.192,2.086q6.507,3.3,12.94,6.74a1.5,1.5,0,0,0,2.033-.333,10.517,10.517,0,0,1,11.724-2.26,10.358,10.358,0,0,1,6.87,9.945,10.952,10.952,0,0,1-21.858,1.189c-.059-1.26.236-2.532.224-3.8a1.792,1.792,0,0,0-.673-1.366q-6.688-3.581-13.465-7a2.215,2.215,0,0,0-1.756.029q-10.885,5.582-21.7,11.3a1.986,1.986,0,0,0-.868,1.464c-.062,5.459-.006,10.922-.065,16.381-.012,1.124.67,1.225,1.425,1.476a10.977,10.977,0,0,1-6.109,21.079,10.769,10.769,0,0,1-8.171-10.154,10.6,10.6,0,0,1,7.165-10.724,2.3,2.3,0,0,0,1.853-2.691c-.1-4.967-.068-9.936-.012-14.906a2.077,2.077,0,0,0-1.278-2.178c-7.035-3.615-14.029-7.31-21.076-10.9a2.918,2.918,0,0,0-2.281-.047c-4.356,2.163-8.638,4.471-12.973,6.675-.927.472-1.083.977-.856,1.974a10.974,10.974,0,0,1-21.38,4.961,11.019,11.019,0,0,1,5.155-12.034,10.841,10.841,0,0,1,12.849,1.352,1.981,1.981,0,0,0,2.774.336c4.1-2.228,8.251-4.359,12.409-6.475a2,2,0,0,0,1.254-2.051q-.062-12.766-.006-25.532a1.89,1.89,0,0,0-1.118-1.986q-6.569-3.338-13.07-6.805a1.413,1.413,0,0,0-1.912.3A11.053,11.053,0,0,1,27.05,99.577c-1.293-5.852,3.025-11.919,8.909-13.026a11.091,11.091,0,0,1,12.7,13.6,1.329,1.329,0,0,0,.814,1.744c4.415,2.266,8.8,4.592,13.229,6.82a2.387,2.387,0,0,0,1.889-.021q10.823-5.542,21.566-11.235A2.14,2.14,0,0,0,87.1,95.9c.068-5.409.006-10.824.071-16.234.015-1.175-.673-1.313-1.484-1.582a10.992,10.992,0,0,1,.682-21.076A10.993,10.993,0,0,1,99.577,64.33,10.877,10.877,0,0,1,92.94,77.873,2.394,2.394,0,0,0,91,80.652c.115,4.967.065,9.936.024,14.906a1.963,1.963,0,0,0,1.192,2.075q10.557,5.414,21.047,10.96a2.458,2.458,0,0,0,2.6,0q6.3-3.373,12.678-6.6c.983-.5,1.163-.986.921-2.066-1.4-6.244,2.6-12.022,9.066-13.241,5.492-1.036,11.332,3.137,12.394,8.859a11.009,11.009,0,0,1-5.4,11.53,10.675,10.675,0,0,1-12.589-1.346,2.1,2.1,0,0,0-2.91-.325c-4.064,2.2-8.165,4.317-12.282,6.407a2.072,2.072,0,0,0-1.325,2.157c.062,4.229.027,8.461.027,12.692ZM65.6,114.613c-.068.779-.145,1.254-.145,1.726-.009,7.673.015,15.342-.027,23.015a2.132,2.132,0,0,0,1.381,2.145c6.2,3.193,12.377,6.433,18.562,9.653.5.26,1.027.472,1.774.814V150.09c0-7.572-.027-15.148.027-22.72a2.281,2.281,0,0,0-1.422-2.39c-6.212-3.166-12.38-6.418-18.565-9.635-.425-.221-.871-.4-1.585-.735Zm25.526,37.257a8.8,8.8,0,0,0,.909-.331c6.581-3.417,13.147-6.855,19.742-10.243.956-.493.965-1.239.965-2.092q-.009-11.358-.012-22.717a16.865,16.865,0,0,0-.192-1.765,9.465,9.465,0,0,0-1.018.369c-6.534,3.4-13.055,6.826-19.6,10.2-.841.434-.882,1.036-.882,1.8q.018,11.655.009,23.307c0,.431.044.862.08,1.473ZM67.9,111.343c.561.348.838.546,1.136.7,6.359,3.32,12.707,6.66,19.1,9.91a2.736,2.736,0,0,0,2.145-.1c6.174-3.14,12.306-6.356,18.45-9.555.454-.236.888-.513,1.576-.915-.7-.416-1.142-.7-1.6-.941-6.1-3.178-12.214-6.324-18.287-9.549a2.561,2.561,0,0,0-2.709.047c-6.041,3.184-12.108,6.321-18.164,9.479-.466.242-.918.516-1.647.927ZM30.833,155.691a7.2,7.2,0,1,0,14.392.03,7.322,7.322,0,0,0-7.2-7.262,7.249,7.249,0,0,0-7.189,7.233Zm116.53.13a7.24,7.24,0,0,0-7.2-7.363,7.283,7.283,0,1,0,7.2,7.363ZM81.9,185.632a7.195,7.195,0,0,0,14.389.148,7.2,7.2,0,1,0-14.392-.15ZM45.225,97.683A7.2,7.2,0,1,0,30.836,97.4a7.2,7.2,0,1,0,14.389.283Zm102.138-.089a7.2,7.2,0,1,0-7.156,7.265A7.253,7.253,0,0,0,147.363,97.594ZM89.086,74.818A7.061,7.061,0,0,0,96.3,67.7a7.2,7.2,0,1,0-14.392-.03,7.059,7.059,0,0,0,7.183,7.144Z" transform="translate(0)" fill="#13378e"/>
    </g>
    <line id="Line_2" data-name="Line 2" x2="154" transform="translate(1480 5691)" fill="none" stroke="#5fbc38" stroke-linecap="round" stroke-width="6"/>
  </g>
</svg>
