<svg xmlns="http://www.w3.org/2000/svg" width="160" height="181.549" viewBox="0 0 160 181.549">
  <g id="Group_72" data-name="Group 72" transform="translate(-876 -5512.451)">
    <g id="Artboard_1" data-name="Artboard 1" transform="translate(883.617 5469.299)">
      <path id="Path_77" data-name="Path 77" d="M134.029,43.152c.282.129.561.265.848.383a3.276,3.276,0,0,1,2.056,3.679,3.122,3.122,0,0,1-3.2,2.554c-5.056.029-10.112.005-15.168.024-2.592.011-2.581-.407-2.584,2.536-.008,5.832-2.74,9.658-7.864,10.89a14.913,14.913,0,0,1-3.248.273q-4.237.056-8.474.005c-.979-.011-1.337.313-1.326,1.323.049,4.905.014,9.814.025,14.719.014,7.355-3,12.981-9.726,16.561a2.1,2.1,0,0,0-.853,1.574c-.077,3.478-.038,6.957-.044,10.437a9.691,9.691,0,0,1-5.843,9.219,1.645,1.645,0,0,0-1.061,1.751,18.092,18.092,0,0,1-.235,3.714,3.163,3.163,0,0,1-3.423,2.45,3.3,3.3,0,0,1-2.972-3.141,2.2,2.2,0,0,1-.008-.4c.325-2.415-.224-4.07-2.762-5.411-2.994-1.585-4.252-4.664-4.3-8.041q-.078-5.217.008-10.437a1.905,1.905,0,0,0-1.17-1.979c-5.994-3.24-9.185-8.215-9.267-14.965-.063-5.173-.014-10.349-.016-15.522,0-1.826-.011-1.832-1.925-1.842-3.235-.019-6.472.054-9.7-.078A10.008,10.008,0,0,1,32.4,53.852c-.016-.892-.06-1.789.005-2.675.077-1.05-.347-1.419-1.414-1.4-2.868.048-5.739.016-8.611.016-2.461,0-4.919.011-7.38-.008a3.384,3.384,0,0,1-3.607-2.629,3.338,3.338,0,0,1,2.3-3.655,4.192,4.192,0,0,0,.561-.345H134.023ZM74.283,63.5c-4.192,0-8.384.029-12.573-.019-1.181-.013-1.673.252-1.654,1.558.079,5.307.025,10.617.036,15.924a9.861,9.861,0,0,0,7.957,9.878,52.257,52.257,0,0,0,9.915.415c5.854-.08,10.623-4.71,10.478-11.511-.1-4.905-.052-9.814,0-14.722.014-1.184-.421-1.556-1.589-1.542-4.192.043-8.381.016-12.573.016Zm-.1-13.715q-16.058,0-32.118.005c-3.579.005-2.986-.42-3.019,2.978-.027,2.779,1.247,4.091,4.069,4.287.364.024.727.016,1.094.016q29.933,0,59.864-.008a14.916,14.916,0,0,0,2.445-.185,3.328,3.328,0,0,0,2.7-2.68,16.627,16.627,0,0,0,.183-2.528c.016-1.869-.014-1.885-1.873-1.885H74.187ZM77.8,103.72c0-1.647-.022-3.293.011-4.938.014-.683-.26-.991-.941-.991-1.816,0-3.637-.04-5.45.043a1.259,1.259,0,0,0-.878.86c-.057,3.291-.123,6.587.014,9.872a3.63,3.63,0,0,0,7.238-.311c.022-1.513.005-3.026,0-4.539Z" fill="#13378e"/>
      <path id="Path_78" data-name="Path 78" d="M21.093,178.227c-.566-.137-1.129-.287-1.7-.41a10.3,10.3,0,0,1-8.036-10.569,10.176,10.176,0,0,1,9.713-9.332c.818-.04,1.641-.043,2.461-.043q43.612,0,87.221-.008a17.721,17.721,0,0,0,2.584-.166,3.51,3.51,0,0,0,.454-6.855,8.87,8.87,0,0,0-2.291-.252c-10.024-.016-20.051-.086-30.075.021-4.512.048-9.477-2.889-10.289-8.2a52.706,52.706,0,0,1-.118-9.479c.038-1.307,1.567-2.429,2.972-2.536a3.088,3.088,0,0,1,3.3,2.263,35.659,35.659,0,0,1,.3,4.782c.038.98,0,1.963.011,2.945a3.454,3.454,0,0,0,3.763,3.658c10.254.011,20.508-.011,30.759.011,5.578.011,9.625,3.221,10.746,8.435,1.192,5.54-3.347,11.4-9.1,11.733-1,.056-2,.067-3.005.067q-43.542,0-87.084.011a18.125,18.125,0,0,0-2.584.163,3.492,3.492,0,0,0-.391,6.865,10.958,10.958,0,0,0,2.568.241q54.276.016,108.549.011c.547,0,1.094-.005,1.641.005,1.9.035,3.232,1.02,3.478,2.565a3.206,3.206,0,0,1-2.324,3.741,4.437,4.437,0,0,0-.582.324H21.093Z" transform="translate(0 4.925)" fill="#13378e"/>
    </g>
    <line id="Line_2" data-name="Line 2" x2="154" transform="translate(879 5691)" fill="none" stroke="#5fbc38" stroke-linecap="round" stroke-width="6"/>
  </g>
</svg>
