<svg xmlns="http://www.w3.org/2000/svg" width="160" height="187.708" viewBox="0 0 160 187.708">
  <g id="Group_60" data-name="Group 60" transform="translate(-1553 -1469.292)">
    <g id="Artboard_12" data-name="Artboard 12" transform="translate(1544.039 1413.116)">
      <path id="Path_63" data-name="Path 63" d="M103.978,164.487a51.837,51.837,0,0,0,2.253,6.07c3.9,7.5,3.956,14.951-.086,22.379a13.466,13.466,0,0,0-2,7.894,2.481,2.481,0,0,1-2.281,2.941c-1.33.022-2.268-1.17-2.379-2.892a14.716,14.716,0,0,1,1.824-8.446,23.018,23.018,0,0,0,3.194-8.758,15.707,15.707,0,0,0-1.6-9.409,31.254,31.254,0,0,1-3.441-15.744c.136-8.69.04-17.383.034-26.073a7.466,7.466,0,0,0-6.3-7.594,7.544,7.544,0,0,0-8.557,5.632,9.428,9.428,0,0,0-.188,2.29q-.019,16.433-.009,32.862c0,2.274-.824,3.54-2.311,3.567s-2.376-1.265-2.376-3.5c0-7.508-.028-15.016.025-22.524a3.683,3.683,0,0,0-1.2-2.978c-.994-.941-1.821-2.058-2.95-3.361-.451,1.034-.648,1.484-.842,1.938-2.367,5.536-6.462,8.792-12.535,9.239a2.592,2.592,0,0,0-2.728,2.024c-1.781,5.407-3.712,10.767-5.586,16.143a7.956,7.956,0,0,0,.256,5.987c3.185,7.4,6.443,14.779,9.412,22.268a22.926,22.926,0,0,1,1.037,6.777,2.315,2.315,0,1,1-4.592-.1c.268-3.018-.836-5.616-1.984-8.267-2.753-6.36-5.437-12.748-8.153-19.124a11.99,11.99,0,0,1-.268-9c1.892-5.37,3.737-10.758,5.647-16.121.346-.969.293-1.494-.734-2.052-5.786-3.151-8.5-8.085-7.829-14.64.617-5.974,4.018-9.946,9.573-12.125.327-.13.639-.293,1.151-.531-.481-.537-.861-1-1.278-1.416q-5.883-5.9-11.773-11.791c-1.592-1.6-1.6-2.737-.012-4.339q5.93-5.962,11.884-11.9c.38-.38.722-.8,1.188-1.318C49.5,85.447,45.693,79.929,46.77,71.575a14.066,14.066,0,0,1,12.236-11.8c8.153-.966,13.507,3.03,16.436,10.736.555-.5,1.015-.892,1.441-1.315q5.846-5.828,11.68-11.665c1.821-1.815,2.7-1.805,4.527.015q7.152,7.138,14.294,14.291c.8.8,1.716,1.565,1.358,2.892-.373,1.376-1.561,1.629-2.725,1.923A9.776,9.776,0,0,0,98.3,86.317a9.876,9.876,0,0,0,7.672,9.887,10.093,10.093,0,0,0,12.007-7.113c.08-.3.148-.6.225-.895.673-2.586,2.435-3.071,4.357-1.173,2.16,2.132,4.3,4.286,6.44,6.434l7.854,7.854c2.219,2.222,2.216,2.916-.049,5.187q-5.666,5.68-11.338,11.353c-.392.392-.759.812-1.271,1.364.54.253.92.457,1.318.614a14.6,14.6,0,0,1-.265,27.5,1.639,1.639,0,0,0-1.336,1.848c.062,4.114.059,8.227.015,12.341-.046,4.41-3.253,7.838-7.341,7.718a17.28,17.28,0,0,1-10.8-3.941c-.315-.262-.639-.512-.969-.753-.068-.049-.194-.015-.836-.046ZM90.594,62.012c-.321.3-.778.7-1.207,1.129q-6.994,6.971-13.979,13.952c-.787.787-1.617,1.478-2.848.96a2.494,2.494,0,0,1-1.478-2.762,13.645,13.645,0,0,0-.1-3.077,9.868,9.868,0,0,0-8.28-7.854c-4.919-.522-9.026,1.719-10.813,5.9a10,10,0,0,0,2.787,11.6,10.388,10.388,0,0,0,7.588,2.392c1.722-.1,2.768.475,2.713,1.74a4.167,4.167,0,0,1-1.058,2.53c-4.561,4.675-9.208,9.264-13.828,13.884-.429.429-.839.879-1.361,1.426.478.525.87.984,1.293,1.407q6.647,6.661,13.3,13.316c.327.327.805.6.944,1,.309.864.839,1.96.543,2.645-.287.67-1.444,1.068-2.3,1.358a7.907,7.907,0,0,1-1.99.028,9.373,9.373,0,0,0-8.539,5.845,9.484,9.484,0,0,0,1.41,10.538,9.653,9.653,0,0,0,9.665,3.444,9.926,9.926,0,0,0,8.023-10.822c-.1-1.213.1-2.333,1.355-2.821a2.639,2.639,0,0,1,3.03.92c1.25,1.327,2.571,2.583,4.092,4.1.157-1.592.241-2.8.4-3.993a12.073,12.073,0,0,1,23.968-.1c.071.518.241,1.021.361,1.531l.577.3c.451-.623.876-1.268,1.361-1.87a2.407,2.407,0,0,1,3.024-.818c1.129.484,1.194,1.518,1.182,2.611a13.915,13.915,0,0,0,.244,3.206,10.016,10.016,0,0,0,17.59,4.225,9.991,9.991,0,0,0-7.644-16.291c-.463-.006-.929-.019-1.389.019a2.353,2.353,0,0,1-2.617-1.453c-.5-1.148.077-1.975.836-2.737q7.078-7.105,14.158-14.211c.42-.423.805-.879,1.046-1.145l-11.2-11.2a14.79,14.79,0,0,1-10.758,7.922A14.075,14.075,0,0,1,97.8,96.559,13.711,13.711,0,0,1,93.658,85.8a14.6,14.6,0,0,1,8.15-12.591c-3.743-3.737-7.4-7.388-11.22-11.205Zm15.652,75.331c-1.241.8-2.132,1.549-2.1,3.166.1,4.058.006,8.116.04,12.177a12.36,12.36,0,0,0,12.156,11.881c1.923-.022,2.873-.91,2.885-2.8.022-4.11-.009-8.221.019-12.331.006-.9-.179-1.312-1.21-1.512a14.35,14.35,0,0,1-11.276-9.4c-.142-.364-.315-.716-.518-1.182Z" fill="#13378e"/>
      <path id="Path_64" data-name="Path 64" d="M27.681,107.542c-2.21,0-4.422.019-6.632-.006-1.753-.022-2.929-.947-2.978-2.277-.049-1.376,1.182-2.395,3.006-2.4q6.707-.028,13.418,0c1.753.006,2.925.938,2.978,2.274.052,1.376-1.179,2.385-3,2.407-2.262.025-4.524.006-6.786.006Z" fill="#13378e"/>
      <path id="Path_65" data-name="Path 65" d="M156.1,107.542c-2.21,0-4.422.019-6.632-.006-1.833-.019-3.061-1.012-3.021-2.389.037-1.336,1.213-2.284,2.959-2.29q6.707-.032,13.418,0c1.836.006,3.058,1,3.021,2.385-.037,1.336-1.21,2.274-2.959,2.293-2.262.028-4.524.006-6.786.006Z" fill="#13378e"/>
      <path id="Path_66" data-name="Path 66" d="M40.037,76.238c0,2.169-1.407,3.185-2.932,2.651a6.731,6.731,0,0,1-1.1-.531q-5.8-3.337-11.594-6.687c-1.5-.87-2-2.256-1.3-3.438.67-1.133,2.031-1.379,3.509-.534,4.009,2.287,8.02,4.573,11.977,6.95a6.3,6.3,0,0,1,1.441,1.589Z" fill="#13378e"/>
      <path id="Path_67" data-name="Path 67" d="M161.1,140.534c-.046,2.114-1.506,3.132-3.012,2.509a24.487,24.487,0,0,1-2.839-1.534c-3.336-1.923-6.659-3.867-10-5.777-1-.574-1.669-1.41-1.3-2.5a3.494,3.494,0,0,1,1.623-1.762,2.38,2.38,0,0,1,1.845.318c4.16,2.339,8.307,4.709,12.4,7.166a5.07,5.07,0,0,1,1.278,1.583Z" fill="#13378e"/>
      <path id="Path_68" data-name="Path 68" d="M143.885,76.235a5.411,5.411,0,0,1,1.318-1.5c4.046-2.422,8.141-4.771,12.242-7.1a2.335,2.335,0,0,1,3.37.6,2.44,2.44,0,0,1-1.17,3.361c-4.03,2.355-8.067,4.7-12.137,6.98-1.873,1.049-3.626.133-3.623-2.342Z" fill="#13378e"/>
      <path id="Path_69" data-name="Path 69" d="M40.04,134.18a5.486,5.486,0,0,1-1.33,1.5c-4.055,2.422-8.153,4.774-12.26,7.1a2.323,2.323,0,0,1-3.361-.639,2.385,2.385,0,0,1,1.086-3.262c4.077-2.385,8.159-4.765,12.273-7.079,1.867-1.049,3.623-.108,3.589,2.379Z" fill="#13378e"/>
    </g>
    <line id="Line_1" data-name="Line 1" x2="154" transform="translate(1556 1654)" fill="none" stroke="#5fbc38" stroke-linecap="round" stroke-width="6"/>
  </g>
</svg>
