<svg xmlns="http://www.w3.org/2000/svg" width="161" height="193" viewBox="0 0 161 193">
  <g id="Group_61" data-name="Group 61" transform="translate(-1121 -1464)">
    <g id="Artboard_11" data-name="Artboard 11" transform="translate(1111.039 1413.116)">
      <path id="Path_44" data-name="Path 44" d="M170.961,208.884h-158v-158h158ZM91.97,166.135c-.562-.506-1.062-.932-1.537-1.386q-6.8-6.5-13.609-13.007c-1.54-1.466-2.626-1.568-4.194-.2-1.614,1.407-3.061,3-4.623,4.475a3.438,3.438,0,0,1-1.407.8c-3.271.861-6.545,1.716-9.841,2.478-9.477,2.191-15.893,10.739-16.01,19.312-.062,4.629-.059,9.258-.071,13.89,0,1.491-.04,2.987.071,4.472a2.373,2.373,0,0,0,2.848,2.3c1.469-.139,2.253-1.129,2.256-2.938.012-5.607-.037-11.214.022-16.821a15.57,15.57,0,0,1,11.751-14.985c2.728-.707,5.5-1.259,8.19-2.089,1.546-.475,2.169.019,2.774,1.37C71,169.2,73.507,174.547,76,179.9c1.123,2.407,2.651,2.793,4.811,1.3.574-.4,1.154-.79,2.018-1.382.589,2.527,2.166,4.447,1.222,7.1-.991,2.793-1.6,5.724-2.345,8.6-.481,1.861.136,3.271,1.549,3.675,1.691.484,2.966-.324,3.518-2.3.583-2.074,1.071-4.172,1.666-6.24,1.179-4.1.077-3.407,4.5-3.425.6,0,1.654.41,1.7.75a3.353,3.353,0,0,1-.608,2.135c-.537.8-1.376,1.382-2,2.135a2.574,2.574,0,0,0,2.706,4.129,9.1,9.1,0,0,0,1.845-1c.17.506.321.923.447,1.349.63,2.108,1.842,2.95,3.561,2.469,1.469-.41,2.043-1.811,1.531-3.8-.756-2.929-1.376-5.906-2.339-8.764-.879-2.617.738-4.447,1.395-6.78.63.426,1.052.7,1.463,1,2.728,1.953,4.1,1.6,5.5-1.4,2.459-5.314,4.953-10.613,7.348-15.954.522-1.16,1.049-1.528,2.318-1.157,2.558.75,5.166,1.318,7.749,1.984,7.851,2.021,12.452,7.931,12.464,16.01.009,5.3,0,10.6.006,15.9,0,1.978.846,2.993,2.472,3.046,1.728.056,2.682-.926,2.688-2.99.015-5.916.028-11.831-.065-17.747-.136-8.6-6.527-16.713-15.186-19.012-3.515-.932-7.051-1.79-10.569-2.722a3.48,3.48,0,0,1-1.432-.781c-1.521-1.438-2.922-3.009-4.49-4.388-1.7-1.494-2.787-1.379-4.434.194q-6.916,6.61-13.831,13.223c-.361.346-.75.667-1.216,1.077ZM92,148.319c3.138,0,6.277.046,9.412-.012a5.256,5.256,0,0,0,5.234-5.339,33.923,33.923,0,0,1,.049-3.546,5.2,5.2,0,0,1,.9-1.719c.6-1.018,1.7-2.015,1.731-3.046a24.971,24.971,0,0,1,5.326-14.64,26.486,26.486,0,0,0,4.845-21.463,28.009,28.009,0,1,0-49.958,21.879,23.2,23.2,0,0,1,4.99,13.81,3.99,3.99,0,0,0,1.284,2.944c1.42.91,1.5,2.015,1.432,3.382-.04.768-.022,1.543,0,2.314a5.345,5.345,0,0,0,5.348,5.422c3.135.052,6.274.012,9.412.009Zm-.151,7.989c1.231,0,2.463.04,3.691-.009a2.42,2.42,0,0,0,2.493-2.382,2.3,2.3,0,0,0-2.281-2.7c-2.506-.1-5.021-.1-7.53-.009a2.353,2.353,0,0,0-2.364,2.648,2.488,2.488,0,0,0,2.6,2.45c1.126.04,2.256.009,3.382.006Zm-27.8,37.513c0-1.129.062-2.262-.015-3.388A2.378,2.378,0,0,0,61.9,188c-1.453-.219-2.765.432-2.888,1.848a44.233,44.233,0,0,0-.022,7.483c.12,1.469,1.349,2.089,2.833,1.923a2.453,2.453,0,0,0,2.219-2.515c.046-.972.009-1.95.006-2.925Zm55.788-.225c0,1.077-.059,2.16.015,3.234a2.363,2.363,0,0,0,2.139,2.419c1.472.219,2.759-.414,2.882-1.842a44.232,44.232,0,0,0,.019-7.483c-.12-1.463-1.355-2.089-2.836-1.929a2.488,2.488,0,0,0-2.213,2.521c-.046,1.025-.009,2.052-.006,3.08Zm-25.2-128.06a24.227,24.227,0,0,0-.164-2.79,2.609,2.609,0,0,0-5.194.488c-.028,1.438-.034,2.879,0,4.317a2.476,2.476,0,0,0,2.237,2.657,2.419,2.419,0,0,0,2.9-2.1,19.14,19.14,0,0,0,.219-2.574ZM62.419,123.919a9.481,9.481,0,0,0-1.953,1.021c-1.216,1.1-2.382,2.256-3.487,3.466a2.584,2.584,0,0,0,3.527,3.759,22.322,22.322,0,0,0,3.648-3.715,3.524,3.524,0,0,0,.253-2.83c-.25-.707-1.287-1.136-1.99-1.7Zm56.636,2.53c.154.756.1,1.222.312,1.432a56.555,56.555,0,0,0,4.968,4.694c.978.765,2.074.009,2.787-.879a2.212,2.212,0,0,0,.056-2.975,27.292,27.292,0,0,0-4.043-3.969,3.118,3.118,0,0,0-2.651-.114c-.688.3-1.062,1.312-1.432,1.815ZM62.373,85.326c.679-.509,1.765-.92,2.037-1.636a3.465,3.465,0,0,0-.287-2.824,23.442,23.442,0,0,0-3.543-3.632,2.585,2.585,0,0,0-3.641,3.654c1.126,1.262,2.355,2.444,3.6,3.589a7.974,7.974,0,0,0,1.833.852Zm56.5-2.663c.555.719.978,1.762,1.707,2.064a3.209,3.209,0,0,0,2.7-.225,18.622,18.622,0,0,0,3.8-3.8,3.006,3.006,0,0,0,.191-2.657,3.292,3.292,0,0,0-2.29-1.4c-1.583-.179-5.752,4.172-6.1,6.024ZM53.5,103.712c-.873,0-1.75-.043-2.62.009a2.385,2.385,0,0,0-2.361,2.5,2.327,2.327,0,0,0,2.293,2.552c1.744.074,3.493.074,5.237,0a2.527,2.527,0,0,0,2.37-2.561,2.6,2.6,0,0,0-2.453-2.493c-.818-.049-1.645-.009-2.466-.009Zm76.7,5.086v-.006c.873,0,1.75.056,2.617-.012a2.351,2.351,0,0,0,2.256-2.589,2.314,2.314,0,0,0-2.234-2.453c-1.744-.077-3.493-.071-5.237-.009a2.531,2.531,0,0,0-.022,5.055c.87.059,1.744.012,2.617.012Z" fill="none"/>
      <path id="Path_45" data-name="Path 45" d="M91.97,166.135c.466-.414.855-.731,1.216-1.077q6.92-6.61,13.831-13.223c1.648-1.574,2.731-1.688,4.434-.194,1.571,1.379,2.969,2.95,4.49,4.388a3.445,3.445,0,0,0,1.432.781c3.515.932,7.051,1.79,10.569,2.722,8.659,2.3,15.05,10.409,15.186,19.012.093,5.916.08,11.831.065,17.747-.006,2.064-.96,3.046-2.688,2.99-1.626-.052-2.469-1.068-2.472-3.046-.009-5.3,0-10.6-.006-15.9-.015-8.079-4.613-13.989-12.464-16.01-2.583-.667-5.191-1.234-7.749-1.984-1.268-.373-1.8,0-2.318,1.157-2.395,5.342-4.888,10.64-7.348,15.954-1.392,3-2.768,3.351-5.5,1.4-.41-.293-.836-.571-1.463-1-.657,2.333-2.274,4.163-1.395,6.78.963,2.861,1.583,5.835,2.339,8.764.512,1.99-.062,3.391-1.531,3.8-1.719.481-2.929-.361-3.561-2.469-.127-.426-.281-.846-.447-1.349a8.941,8.941,0,0,1-1.845,1,2.574,2.574,0,0,1-2.706-4.129c.62-.75,1.46-1.336,2-2.135a3.334,3.334,0,0,0,.608-2.135c-.049-.339-1.1-.753-1.7-.75-4.419.019-3.317-.67-4.5,3.425-.6,2.068-1.086,4.169-1.666,6.24-.555,1.975-1.83,2.78-3.518,2.3-1.413-.4-2.031-1.815-1.549-3.675.747-2.879,1.352-5.811,2.345-8.6.944-2.66-.633-4.576-1.222-7.1-.864.592-1.444.984-2.018,1.382-2.157,1.5-3.688,1.108-4.811-1.3-2.5-5.354-5-10.705-7.412-16.1-.6-1.352-1.228-1.845-2.774-1.37-2.691.83-5.462,1.382-8.19,2.089a15.563,15.563,0,0,0-11.751,14.985c-.059,5.607-.006,11.214-.022,16.821,0,1.808-.79,2.8-2.256,2.938a2.373,2.373,0,0,1-2.848-2.3c-.111-1.484-.074-2.981-.071-4.472.012-4.629.006-9.261.071-13.89.117-8.573,6.533-17.121,16.01-19.312,3.3-.762,6.57-1.617,9.841-2.478a3.438,3.438,0,0,0,1.407-.8c1.561-1.469,3.009-3.067,4.623-4.475,1.568-1.364,2.654-1.259,4.194.2q6.823,6.485,13.609,13.007c.475.454.975.879,1.537,1.386ZM74.643,156.92c-2.262,1.25-2.546,2.015-1.577,4.12q2.666,5.8,5.363,11.575c.4.87.833,1.728,1.364,2.83l8.079-5.863L74.643,156.92Zm29.542,18.534c1.333-2.867,2.521-5.416,3.7-7.968,1.117-2.416,2.222-4.842,3.342-7.258.617-1.33-.17-2.114-1.071-2.879-1.043-.886-1.469.194-1.978.676-3.623,3.41-7.212,6.86-10.8,10.3-.389.373-.734.787-1.213,1.305,2.713,1.969,5.271,3.823,8.023,5.82ZM91.89,181.99c2.774-.089,2.79-.083,3.262-1.367.46-1.25,1.626-3.015,1.182-3.669-1.018-1.5-2.83-2.456-4.317-3.632q-2.287,1.8-4.576,3.6a23.043,23.043,0,0,0,1.74,4.561c.33.528,1.774.358,2.713.509Z" fill="#13378e"/>
      <path id="Path_46" data-name="Path 46" d="M92.007,148.319c-3.138,0-6.277.043-9.412-.009a5.345,5.345,0,0,1-5.348-5.422c-.019-.771-.037-1.546,0-2.314.074-1.364-.012-2.472-1.432-3.382a3.984,3.984,0,0,1-1.284-2.944,23.2,23.2,0,0,0-4.99-13.81A28.008,28.008,0,1,1,119.5,98.559a26.489,26.489,0,0,1-4.845,21.463,24.971,24.971,0,0,0-5.326,14.64c-.028,1.031-1.136,2.027-1.731,3.046a5.222,5.222,0,0,0-.9,1.719,33.913,33.913,0,0,0-.049,3.546,5.258,5.258,0,0,1-5.234,5.339c-3.135.059-6.274.012-9.412.015Zm-.065-5.129c2.16,0,4.32.006,6.48,0,3.484-.015,2.805.216,2.963-2.99.077-1.555-.312-2.234-2.006-2.129a2.448,2.448,0,0,1-2.574-2.49,2.518,2.518,0,0,1,2.518-2.568c1.179-.059,2.367-.056,3.549-.028a1.265,1.265,0,0,0,1.5-1.33,27.289,27.289,0,0,1,5.876-14.488,21.765,21.765,0,0,0,4.271-16.72A22.579,22.579,0,0,0,89.094,81.074c-17.139,2.1-25.641,21.941-15.513,35.945,3.16,4.37,5.5,9.023,6,14.464.108,1.148.66,1.546,1.805,1.521,2.62-.059,5.246-.043,7.869.019a2.581,2.581,0,0,1,2.561,2.555,2.682,2.682,0,0,1-2.611,2.527c-1.028.043-2.058,0-3.086.022-4.2.083-3.438-.663-3.574,3.586-.037,1.185.432,1.515,1.528,1.5,2.623-.046,5.246-.015,7.869-.012Z" fill="#13378e"/>
      <path id="Path_47" data-name="Path 47" d="M91.856,156.309c-1.126,0-2.256.034-3.382-.006a2.49,2.49,0,0,1-2.6-2.45,2.352,2.352,0,0,1,2.364-2.648c2.506-.1,5.024-.1,7.53.009a2.3,2.3,0,0,1,2.281,2.7A2.42,2.42,0,0,1,95.55,156.3c-1.228.049-2.459.009-3.691.012Z" fill="#13378e"/>
      <path id="Path_48" data-name="Path 48" d="M64.052,193.822c0,.975.04,1.953-.009,2.925a2.453,2.453,0,0,1-2.219,2.515c-1.484.167-2.713-.454-2.833-1.923a44.232,44.232,0,0,1,.022-7.483c.123-1.416,1.435-2.068,2.888-1.848a2.375,2.375,0,0,1,2.132,2.429c.077,1.123.015,2.259.015,3.388Z" fill="#13378e"/>
      <path id="Path_49" data-name="Path 49" d="M119.836,193.6c0-1.028-.037-2.055.009-3.08A2.479,2.479,0,0,1,122.058,188c1.481-.157,2.713.466,2.836,1.929a44.233,44.233,0,0,1-.019,7.483c-.127,1.432-1.41,2.061-2.882,1.842a2.368,2.368,0,0,1-2.139-2.419c-.074-1.074-.015-2.154-.015-3.234Z" fill="#13378e"/>
      <path id="Path_50" data-name="Path 50" d="M94.64,65.536a19.573,19.573,0,0,1-.219,2.574,2.417,2.417,0,0,1-2.9,2.1,2.481,2.481,0,0,1-2.237-2.657c-.037-1.438-.031-2.879,0-4.317.031-1.648.867-2.642,2.281-2.774a2.481,2.481,0,0,1,2.913,2.287,24.227,24.227,0,0,1,.164,2.79Z" fill="#13378e"/>
      <path id="Path_51" data-name="Path 51" d="M62.419,123.919c.7.562,1.74.991,1.99,1.7a3.535,3.535,0,0,1-.253,2.83,22.443,22.443,0,0,1-3.648,3.715,2.584,2.584,0,0,1-3.527-3.759c1.1-1.21,2.271-2.37,3.487-3.466a9.481,9.481,0,0,1,1.953-1.021Z" fill="#13378e"/>
      <path id="Path_52" data-name="Path 52" d="M119.055,126.449c.367-.5.744-1.512,1.432-1.815a3.129,3.129,0,0,1,2.651.114,27.6,27.6,0,0,1,4.043,3.969,2.212,2.212,0,0,1-.056,2.975c-.713.886-1.808,1.642-2.787.88a56.1,56.1,0,0,1-4.968-4.694c-.21-.21-.16-.676-.312-1.432Z" fill="#13378e"/>
      <path id="Path_53" data-name="Path 53" d="M62.373,85.323a7.66,7.66,0,0,1-1.833-.852,50.657,50.657,0,0,1-3.6-3.589,2.585,2.585,0,0,1,3.641-3.654,23.306,23.306,0,0,1,3.543,3.632,3.466,3.466,0,0,1,.287,2.824c-.272.719-1.358,1.126-2.037,1.636Z" fill="#13378e"/>
      <path id="Path_54" data-name="Path 54" d="M118.873,82.66c.349-1.852,4.518-6.2,6.1-6.024a3.286,3.286,0,0,1,2.29,1.4,3.016,3.016,0,0,1-.191,2.657,18.622,18.622,0,0,1-3.8,3.8,3.2,3.2,0,0,1-2.7.225c-.728-.3-1.151-1.345-1.707-2.064Z" fill="#13378e"/>
      <path id="Path_55" data-name="Path 55" d="M53.495,103.712c.821,0,1.648-.04,2.466.009a2.6,2.6,0,0,1,2.453,2.493,2.527,2.527,0,0,1-2.37,2.561c-1.744.071-3.493.074-5.237,0a2.329,2.329,0,0,1-2.293-2.552,2.385,2.385,0,0,1,2.361-2.5c.87-.052,1.747-.009,2.62-.009Z" fill="#13378e"/>
      <path id="Path_56" data-name="Path 56" d="M130.2,108.795c-.873,0-1.75.049-2.617-.012a2.531,2.531,0,0,1,.022-5.055c1.744-.062,3.493-.068,5.237.009a2.314,2.314,0,0,1,2.234,2.453,2.351,2.351,0,0,1-2.256,2.589c-.867.068-1.744.012-2.617.012v.006Z" fill="#13378e"/>
      <path id="Path_61" data-name="Path 61" d="M93.646,89.045a2.778,2.778,0,0,1-2.33,2.475A19.256,19.256,0,0,0,87.3,92.5a12.381,12.381,0,0,0-7.78,10.128c-.3,1.882-1.457,2.953-3.037,2.722-1.555-.225-2.364-1.574-2.1-3.5A17.777,17.777,0,0,1,89.11,86.514a9,9,0,0,1,2.305-.065,2.657,2.657,0,0,1,2.231,2.6Z" fill="#13378e"/>
    </g>
    <line id="Line_1" data-name="Line 1" x2="154" transform="translate(1124 1654)" fill="none" stroke="#5fbc38" stroke-linecap="round" stroke-width="6"/>
  </g>
</svg>
