<svg xmlns="http://www.w3.org/2000/svg" width="160" height="193" viewBox="0 0 160 193">
  <g id="Group_62" data-name="Group 62" transform="translate(-700 -1464)">
    <g id="Artboard_13" data-name="Artboard 13" transform="translate(697.043 1413.121)">
      <path id="Path_71" data-name="Path 71" d="M45.362,208.876a6.1,6.1,0,0,1-2.99-3.317c-3.462-7.11-7.014-14.173-10.486-21.277-3.524-7.212.188-14.935,8.042-16.45,4.487-.864,8.2.812,10.9,4.49,1.271,1.737,2.293,3.654,3.438,5.484.281.451.6.879,1.179,1.713.1-.923.188-1.348.188-1.774q.009-21.213.028-42.427a2.086,2.086,0,0,0-1.45-2.182c-10.68-4.968-17.083-13.183-18.666-24.952C33.3,91.547,45.414,75.778,62,73.458a31.284,31.284,0,0,1,17.009,59.667,2.352,2.352,0,0,0-1.713,2.6c.1,4.37.037,8.742.037,13.115v1.716a6.062,6.062,0,0,0,1.2-.009c17.324-4.067,31.738-19.447,34.827-36.977a48.039,48.039,0,0,0-6.551-34.715c-.793-1.287-1.46-1.682-3.04-1.163a11.363,11.363,0,0,1-14.655-8.48,11.511,11.511,0,0,1,9.338-13.824A11.047,11.047,0,0,1,109.5,59.741a10.882,10.882,0,0,1,1.256,11.89A2.738,2.738,0,0,0,111,74.8a52.15,52.15,0,0,1,8.683,24.063,53.382,53.382,0,0,1-29.769,53.607c-.491.238-.957.521-1.457.8,1.555,1.953,1.58,1.959,3.262.673a10.859,10.859,0,0,1,16.142,3.589c.305.58.592,1.17.79,1.561a37.734,37.734,0,0,1,5.7-.975,10.4,10.4,0,0,1,10.535,9.955c.2,7.554.093,15.117.108,22.678.009,4.527-.068,9.054.031,13.578.046,2.1-.4,3.74-2.524,4.552h-.617c-2.142-.808-2.722-2.373-2.7-4.6.089-11.618.046-23.239.04-34.86,0-3.268-2.166-5.644-5.073-5.6-2.928.043-5.018,2.392-5.024,5.669-.009,3.135.006,6.273-.006,9.409-.009,2.074-1.049,3.308-2.786,3.351-1.882.049-2.916-1.08-2.932-3.314-.028-4.113.009-8.227-.022-12.34a37.838,37.838,0,0,0-.219-4.916A4.831,4.831,0,0,0,98.5,157.54a4.969,4.969,0,0,0-5.1,3.829,11.34,11.34,0,0,0-.25,2.441c-.025,5.092.006,10.18-.034,15.272a2.712,2.712,0,0,1-3.428,2.879,2.8,2.8,0,0,1-2.253-3.043c-.015-5.348.009-10.7-.015-16.043a5.1,5.1,0,0,0-4.851-5.335,4.986,4.986,0,0,0-5.234,5.055c-.025,5.039.009,10.078-.019,15.117a3.044,3.044,0,0,1-2.805,3.271,3,3,0,0,1-3.024-2.882,13.63,13.63,0,0,1-.065-1.845q0-27.61,0-55.224c0-.719.015-1.441-.034-2.16a4.973,4.973,0,0,0-6.07-4.332c-2.638.707-4,2.666-4,5.814q0,34.627-.006,69.258c0,1.938-.673,3.067-1.993,3.4-1.58.4-2.62-.1-3.684-1.811-.975-1.574-1.919-3.163-2.885-4.74-2.114-3.465-4.194-6.949-6.36-10.384a5.209,5.209,0,0,0-5.678-2.5,4.8,4.8,0,0,0-4.209,4.135,7.452,7.452,0,0,0,.667,4.113c3.543,7.412,7.221,14.759,10.887,22.11.685,1.373.87,2.666-.29,3.814a9.4,9.4,0,0,1-1.8,1.123h-.617ZM77.337,127.3c7.863-2.928,16.879-13.8,14.352-27.522A25.535,25.535,0,0,0,41.048,104.8c.1,9.714,8.224,21.922,14.59,22.169,0-1.077-.025-2.148.006-3.219.083-2.956-.392-5.965.892-8.819.145-.321-.154-.981-.438-1.333a14.273,14.273,0,0,1-3.24-11.621c1.046-7.017,8.6-12.633,15.534-11.411,11.38,2,15.892,14.331,8.535,23.224a2.581,2.581,0,0,0-.352,1.753c.185,1.719.63,3.419.734,5.141.133,2.142.031,4.3.031,6.616ZM58.165,104.609c.552,1.453,1.058,2.928,1.676,4.357.41.95,1.077,1.139,2.111.657a10.15,10.15,0,0,1,9.06.046c1.207.586,1.74.2,2.351-.725a8.14,8.14,0,0,0-9.418-12.211,8.7,8.7,0,0,0-5.777,7.878ZM94.633,66.7a5.861,5.861,0,0,0,5.737,5.835,5.779,5.779,0,0,0,.1-11.556A5.841,5.841,0,0,0,94.633,66.7Z" fill="#13378e"/>
      <path id="Path_73" data-name="Path 73" d="M64.185,50.882a2.25,2.25,0,0,0,.441.386,2.855,2.855,0,0,1,1.833,3.206,3.092,3.092,0,0,1-3.138,2.453A47.441,47.441,0,0,0,19.8,95.558a46.706,46.706,0,0,0,6.955,35.036c.67,1.037,1.308.947,2.3.62A11.493,11.493,0,1,1,33.1,153.556a11.3,11.3,0,0,1-11.769-10.915,10.766,10.766,0,0,1,1.274-5.937,1.72,1.72,0,0,0-.077-2.1,52.393,52.393,0,0,1-8.736-21.811c-.231-1.413-.278-2.854-.447-4.277-.083-.7-.256-1.395-.386-2.092v-3.394c.12-.648.272-1.3.361-1.95.336-2.533.509-5.1.994-7.6,4.042-20.857,21.743-38.094,42.631-41.591l6.005-1.009h1.234ZM27.047,142.059a5.741,5.741,0,1,0,5.8-5.761,5.821,5.821,0,0,0-5.8,5.761Z" fill="#13378e"/>
      <path id="Path_75" data-name="Path 75" d="M77.5,57.89a2.683,2.683,0,0,1-2.783-2.814,2.746,2.746,0,0,1,2.771-2.851,2.892,2.892,0,0,1,2.932,2.916A2.848,2.848,0,0,1,77.5,57.89Z" fill="#13378e"/>
    </g>
    <line id="Line_1" data-name="Line 1" x2="154" transform="translate(703 1654)" fill="none" stroke="#5fbc38" stroke-linecap="round" stroke-width="6"/>
  </g>
</svg>
