<svg xmlns="http://www.w3.org/2000/svg" width="160" height="191.718" viewBox="0 0 160 191.718">
  <g id="Group_64" data-name="Group 64" transform="translate(-1553 -3140.282)">
    <g id="Artboard_12" data-name="Artboard 12" transform="translate(1562.109 3140.282)">
      <path id="Path_183" data-name="Path 183" d="M270.8,334.34c-1.513,2.235-3.136,4.694-4.833,7.1a1.753,1.753,0,0,0-.143,2.064c.759,1.546,1.293,3.2,2.047,4.747a2.465,2.465,0,0,0,1.387,1.24c2.52.587,5.07,1.06,7.627,1.493.918.155,1.285.485,1.272,1.464q-.073,6.485,0,12.974c.012.967-.326,1.317-1.26,1.476-2.553.428-5.1.905-7.623,1.5a2.486,2.486,0,0,0-1.387,1.244c-.714,1.456-1.138,3.059-1.921,4.47a2.2,2.2,0,0,0,.241,2.724c1.627,2.272,3.153,4.613,4.649,6.827-3.65,3.638-7.243,7.223-10.967,10.934-2.247-1.521-4.7-3.128-7.1-4.829a1.852,1.852,0,0,0-2.19-.155,48.879,48.879,0,0,1-4.776,1.986,1.647,1.647,0,0,0-1.272,1.444c-.4,2.455-.922,4.894-1.4,7.333-.1.489-.22.971-.351,1.534-4.874,0-9.65.024-14.43-.049-.371,0-.967-.644-1.06-1.077-.575-2.578-.983-5.192-1.578-7.765a2.465,2.465,0,0,0-1.236-1.391,47.413,47.413,0,0,0-4.906-2.06,2.242,2.242,0,0,0-1.737.11c-2.525,1.611-4.984,3.324-7.362,4.935-3.654-3.646-7.247-7.231-10.959-10.938,1.542-2.284,3.153-4.735,4.845-7.129a1.857,1.857,0,0,0,.159-2.19c-.783-1.591-1.325-3.291-2.076-4.9a2.069,2.069,0,0,0-1.219-1.048c-2.578-.575-5.176-1.073-7.778-1.513-.938-.159-1.252-.534-1.24-1.493q.073-6.411,0-12.819c-.012-.987.249-1.436,1.3-1.6,2.508-.4,4.984-1,7.492-1.387a1.775,1.775,0,0,0,1.611-1.476,15.6,15.6,0,0,1,1.546-3.8c.95-1.468.62-2.508-.334-3.781-1.554-2.068-2.928-4.27-4.319-6.326,3.658-3.654,7.251-7.239,10.951-10.93,2.3,1.558,4.76,3.173,7.154,4.87a1.844,1.844,0,0,0,2.194.143c1.542-.763,3.2-1.289,4.755-2.031a2.3,2.3,0,0,0,1.154-1.3c.587-2.573,1.081-5.171,1.517-7.778.151-.889.5-1.179,1.387-1.175q6.564.055,13.124,0c.922-.008,1.232.355,1.374,1.195.436,2.5.971,4.988,1.391,7.492a1.813,1.813,0,0,0,1.427,1.664,35.057,35.057,0,0,1,4.637,1.925,1.852,1.852,0,0,0,2.194-.135c2.357-1.68,4.784-3.267,7.031-4.784,3.671,3.671,7.284,7.28,10.979,10.975Zm-65.169.4c1.517,2.227,2.977,4.425,4.5,6.587a1.614,1.614,0,0,1,.086,1.892c-1.342,2.945-2.61,5.926-3.744,8.952a1.989,1.989,0,0,1-1.709,1.562q-3.383.557-6.733,1.277c-.367.078-.918.547-.93.852-.077,2.268-.045,4.543-.045,6.872,2.708.51,5.241,1.016,7.79,1.444.926.155,1.272.616,1.6,1.48,1.138,3.026,2.37,6.024,3.72,8.96a1.815,1.815,0,0,1-.143,2.153c-1.5,2.109-2.928,4.274-4.233,6.2,1.831,1.856,3.6,3.642,5.412,5.477,2.019-1.37,4.18-2.8,6.293-4.295a1.728,1.728,0,0,1,2.031-.147c2.936,1.354,5.914,2.639,8.952,3.748a1.974,1.974,0,0,1,1.509,1.741c.387,2.2.873,4.384,1.215,6.595.135.856.493,1.081,1.3,1.06,1.831-.045,3.667.045,5.49-.061a1.6,1.6,0,0,0,1.142-.958c.514-2.227.914-4.478,1.3-6.734a1.846,1.846,0,0,1,1.448-1.619c3.038-1.109,6.024-2.365,8.964-3.715a1.834,1.834,0,0,1,2.162.118c2.137,1.525,4.335,2.961,6.252,4.258,1.9-1.884,3.654-3.626,5.453-5.4-1.407-2.076-2.863-4.282-4.384-6.44a1.621,1.621,0,0,1-.082-1.9c1.334-2.945,2.631-5.918,3.724-8.96a2.057,2.057,0,0,1,1.852-1.595q3.31-.545,6.583-1.26c.371-.082.926-.555.938-.861.082-2.268.045-4.543.045-6.872-2.667-.5-5.167-.922-7.639-1.468a2.366,2.366,0,0,1-1.534-1.06c-1.411-3.459-2.7-6.97-4.164-10.824,1.391-2.056,3.1-4.572,4.715-6.97-1.856-1.835-3.618-3.581-5.432-5.375-2.076,1.407-4.286,2.859-6.432,4.4a1.713,1.713,0,0,1-2.023.053c-2.9-1.313-5.832-2.569-8.822-3.667-.991-.363-1.48-.75-1.648-1.8-.416-2.545-.946-5.065-1.44-7.643-2.288,0-4.421.024-6.554-.012-.75-.012-1.064.224-1.191,1-.379,2.3-.869,4.592-1.272,6.893a1.783,1.783,0,0,1-1.383,1.5c-3.026,1.138-6.024,2.374-8.964,3.715a1.805,1.805,0,0,1-2.149-.114c-2.125-1.538-4.327-2.969-6.428-4.4-1.839,1.835-3.565,3.552-5.392,5.371Z" transform="translate(-164.106 -283.135)" fill="#13378e"/>
      <path id="Path_184" data-name="Path 184" d="M204.906,486.176c-26.522,2.8-48.672-5.31-65.7-25.829-11.844-14.27-16.758-30.976-15.816-49.667,1.644.118,3.1.224,4.711.343-.889,21.865,6.432,40.409,23.019,54.761s35.98,18.74,57.559,14.784c.253,1.187.5,2.349.8,3.732,4.233-3.181,8.357-6.285,12.757-9.592-5.241-1.517-10.2-2.957-15.351-4.45.3,1.746.559,3.279.865,5.057-19.356,3.724-36.91-.029-52.082-12.606-16.163-13.4-23.206-30.955-22.223-52.016l4.7.4c-.873,21.436,7.027,38.692,24.613,51.05,11.762,8.263,25.017,11.065,39.443,9.311-.208-1.289-.375-2.472-.591-3.646a2.416,2.416,0,0,1,2.892-3.075,19.856,19.856,0,0,1,2.8.71q10.094,2.93,20.188,5.881c.873.257,1.9.241,2.064,1.607a3.07,3.07,0,0,1-1.26,3.181c-2.9,2.145-5.775,4.335-8.663,6.505q-5.059,3.805-10.127,7.6a2.517,2.517,0,0,1-4.078-1.464C205.2,487.934,205.081,487.077,204.906,486.176Z" transform="translate(-123.273 -339.189)" fill="#13378e"/>
      <path id="Path_185" data-name="Path 185" d="M239.245,246.246c-.22-1.554-.408-2.851-.636-4.454-4.425,2.989-8.683,5.865-13.251,8.952,5.143,1.778,10,3.459,15.062,5.212-.147-1.509-.277-2.843-.408-4.168,37.35-7.3,74.016,24.026,71.23,63.664l-4.531-.31c.493-20.294-7.007-36.783-23.288-48.9-11.256-8.377-24.079-11.652-38.17-10.567.118,1.069.22,2.011.33,2.957.273,2.28-1.3,3.6-3.528,2.867-3.426-1.126-6.827-2.321-10.237-3.491q-6.118-2.111-12.235-4.233a2.483,2.483,0,0,1-.926-4.115,8.29,8.29,0,0,1,1.334-1.007q9.4-6.381,18.81-12.753a2.5,2.5,0,0,1,4,1.66c.224,1.085.343,2.194.51,3.308,27.525-1.554,49.684,8.32,65.74,30.837a68.72,68.72,0,0,1,12.223,44.948c-1.448-.1-2.9-.2-4.523-.31.905-21.249-6.069-39.426-21.873-53.738-15.779-14.291-34.561-19.287-55.634-16.355Z" transform="translate(-179.318 -235.389)" fill="#13378e"/>
      <path id="Path_186" data-name="Path 186" d="M143.268,338.636c-1.362-.632-2.688-1.244-4.278-1.982,1.644-3.01,3.23-5.914,4.931-9.034,1.411.914,2.659,1.721,3.989,2.586-1.542,2.8-3.043,5.526-4.641,8.43Z" transform="translate(-132.58 -290.004)" fill="#13378e"/>
      <path id="Path_187" data-name="Path 187" d="M132.733,368.972l-2.378,9.3c-1.48-.265-2.949-.526-4.666-.832l2.541-9.943C129.879,368.038,131.257,368.491,132.733,368.972Z" transform="translate(-124.704 -313.619)" fill="#13378e"/>
      <path id="Path_188" data-name="Path 188" d="M460.633,449.9c-.681,3-1.305,5.742-1.954,8.577l-4.519-1.3c.591-2.647,1.166-5.237,1.786-8.006,1.5.232,2.965.461,4.682.73Z" transform="translate(-319.21 -361.981)" fill="#13378e"/>
      <path id="Path_189" data-name="Path 189" d="M444.706,492.857c-1.5-.832-2.781-1.538-4.156-2.292,1.162-2.463,2.292-4.866,3.5-7.435,1.411.559,2.794,1.109,4.4,1.746C447.19,487.563,445.995,490.112,444.706,492.857Z" transform="translate(-311.15 -382.09)" fill="#13378e"/>
      <path id="Path_190" data-name="Path 190" d="M150.2,383.23c.742-2.843,1.427-5.469,2.149-8.23,1.635.551,3.063,1.028,4.482,1.5-.657,2.529-1.277,4.927-1.958,7.537-1.4-.245-2.867-.5-4.674-.816Z" transform="translate(-139.218 -318.06)" fill="#13378e"/>
      <path id="Path_191" data-name="Path 191" d="M169.373,344.559c-1.277,2.337-2.484,4.556-3.756,6.884-1.379-.632-2.741-1.26-4.286-1.97l4.07-7.464c1.427.918,2.688,1.729,3.968,2.549Z" transform="translate(-145.809 -298.525)" fill="#13378e"/>
      <path id="Path_192" data-name="Path 192" d="M435.255,453.4l-4.515-1.277c.44-1.99.865-3.9,1.317-5.942,1.55.257,3.014.5,4.645.767C436.209,449.149,435.756,451.164,435.255,453.4Z" transform="translate(-305.341 -360.21)" fill="#13378e"/>
      <path id="Path_193" data-name="Path 193" d="M423.527,482.818c-1.489-.816-2.769-1.517-4.127-2.259.877-1.864,1.709-3.63,2.6-5.518,1.444.583,2.826,1.146,4.36,1.766-.958,2.035-1.86,3.944-2.835,6.008Z" transform="translate(-298.626 -377.3)" fill="#13378e"/>
      <path id="Path_194" data-name="Path 194" d="M187.2,323.556l-2.989,3.414-3.671-2.953,3.226-3.707C184.986,321.464,186.087,322.508,187.2,323.556Z" transform="translate(-157.184 -285.675)" fill="#13378e"/>
      <path id="Path_195" data-name="Path 195" d="M166.207,310.1l-3.667-2.985c1.1-1.248,2.121-2.406,3.218-3.654l3.446,3.218c-1.036,1.179-1.986,2.268-3,3.422Z" transform="translate(-146.525 -275.698)" fill="#13378e"/>
      <path id="Path_196" data-name="Path 196" d="M425.88,517.915c.93-1.272,1.782-2.443,2.7-3.7,1.3.881,2.5,1.7,3.9,2.643-.963,1.313-1.876,2.557-2.892,3.948-1.268-.991-2.443-1.913-3.707-2.9Z" transform="translate(-302.463 -400.5)" fill="#13378e"/>
      <path id="Path_197" data-name="Path 197" d="M410.153,506.909c-1.334-1.06-2.472-1.966-3.683-2.924.693-.938,1.313-1.774,2.015-2.724,1.3.9,2.52,1.75,3.846,2.671-.759,1.036-1.436,1.958-2.182,2.981Z" transform="translate(-290.97 -392.826)" fill="#13378e"/>
      <path id="Path_198" data-name="Path 198" d="M273.77,413.854a16.477,16.477,0,1,1,16.408-16.575,16.506,16.506,0,0,1-16.408,16.575Zm-.049-28.215a11.721,11.721,0,1,0,11.7,11.746,11.672,11.672,0,0,0-11.7-11.746Z" transform="translate(-202.59 -321.554)" fill="#13378e"/>
    </g>
    <line id="Line_5" data-name="Line 5" x2="154" transform="translate(1556 3329)" fill="none" stroke="#5fbc38" stroke-linecap="round" stroke-width="6"/>
  </g>
</svg>
