<svg xmlns="http://www.w3.org/2000/svg" width="164.295" height="186.482" viewBox="0 0 164.295 186.482">
  <g id="Group_65" data-name="Group 65" transform="translate(-1120 -3145.518)">
    <g id="Artboard_11" data-name="Artboard 11" transform="translate(1120 3145.518)">
      <path id="Path_177" data-name="Path 177" d="M106,342.068c.42-3.112.707-6.246,1.278-9.333,4.2-22.679,15.94-40.493,34.821-53.659,1.633-1.136,3.074-.986,3.906.313.81,1.265.382,2.461-1.175,3.653-2.718,2.075-5.4,4.193-8.09,6.306-.5.39-.935.853-1.29,1.179l10.577,10.641c3.125-2.251,6.251-4.772,9.633-6.89a58.954,58.954,0,0,1,28.4-9.037c1.286-.073,1.741-.442,1.719-1.779-.077-4.48-.03-8.96-.03-13.8-3.305.347-6.435.57-9.526,1.02a75.179,75.179,0,0,0-20.78,6.294c-.609.283-1.479.69-1.942.463a4.154,4.154,0,0,1-2.019-1.938,2.068,2.068,0,0,1,1.492-2.649c4.382-1.681,8.682-3.717,13.2-4.866,28.428-7.233,53.954-1.462,76.385,17.569.283.24.57.476,1.025.857l4.965-3.588a9.748,9.748,0,0,1-1.685-.93,86.445,86.445,0,0,0-49.7-22.019c-2.817-.287-5.655-.369-8.484-.519-1.912-.1-2.928-.943-2.885-2.465.043-1.479,1.153-2.371,3.031-2.345a92.067,92.067,0,0,1,63.806,26.182c2.109,2.045,2.174,2.705.484,5.037l-4.257,5.878c1.428,1.732,2.86,3.383,4.193,5.106a80.328,80.328,0,0,1,16.643,40.707c.326,2.864.472,5.753.592,8.634.111,2.619-.673,3.374-3.245,3.374q-9.067.006-18.131,0c-2.834,0-3.511-.63-3.554-3.464a56.148,56.148,0,0,0-8.429-28.87c-.939-1.539-2-3.005-3.155-4.729-1.762,2.422-3.387,4.647-5.007,6.877-.725.995-1.432,2-2.165,2.984-1.14,1.531-2.457,1.886-3.687,1.012s-1.355-2.246-.236-3.794q6.72-9.293,13.475-18.559a55.837,55.837,0,0,0,3.991-6.045c-11.983,8.707-23.97,17.415-36.077,26.212a19.326,19.326,0,0,1,2.555,12.171A18.89,18.89,0,0,1,201,344.37c2.8.759,3.1.652,4.694-1.535,3.2-4.412,6.384-8.844,9.642-13.213a3.615,3.615,0,0,1,2.1-1.5,2.634,2.634,0,0,1,2.2,1.115,3.382,3.382,0,0,1-.2,2.778c-1.908,2.9-4.034,5.655-6.075,8.467-1.35,1.856-2.692,3.717-4.111,5.672.54.356,1.02.665,1.492.986a14.791,14.791,0,0,1,6.992,12.317c.129,4.81.06,9.625.039,14.439-.009,1.976-.87,2.812-2.86,2.817q-26.714.013-53.431,0c-2.075,0-2.9-.832-2.915-2.924-.021-4.386-.03-8.772,0-13.157.06-9.273,6.366-15.7,15.644-15.978.313-.009.63,0,1.325,0-3.983-4.12-6.131-8.75-5.955-14.246a18.206,18.206,0,0,1,6.607-13.736c5.848-5.025,16.068-6.915,24.874.656,7.181-5.218,14.388-10.456,21.723-15.785a54.09,54.09,0,0,0-11.67-6.894c-33.2-14.615-71.815,5.363-79,40.93A89.2,89.2,0,0,0,131,346.248c-.2,2.508-.832,3.22-3.335,3.22-6.152,0-12.3-.034-18.452.026a3.249,3.249,0,0,1-3.19-1.655v-5.775Zm70.932,29.719h22.332a1.73,1.73,0,0,0,.073-.274c.013-1.068.017-2.139.039-3.207.034-1.783.887-2.808,2.349-2.834,1.518-.026,2.431,1.038,2.457,2.9.017,1.153,0,2.307,0,3.43h8.75c0-4.056.077-8.008-.017-11.957a10.3,10.3,0,0,0-10.169-10.319q-14.591-.212-29.191,0a10.34,10.34,0,0,0-10.178,10.319c-.069,2.405-.021,4.81-.026,7.22v4.742h8.767c0-1.213-.013-2.324,0-3.438.026-1.865.939-2.928,2.457-2.9,1.466.026,2.324,1.046,2.349,2.834.017,1.119,0,2.238,0,3.481Zm-50.795-27.181A61.68,61.68,0,0,1,142.4,305.164c-3.666-3.661-7.2-7.2-10.744-10.735-11.575,10.752-22.992,38.478-20.57,50.182h15.048Zm119.78-48.938c-2.9,3.991-5.595,7.777-8.386,11.49a1.677,1.677,0,0,0,.03,2.457,59.315,59.315,0,0,1,11.3,24.84c.652,3.331,1.02,6.714,1.522,10.109h15.078A77.4,77.4,0,0,0,245.917,295.668Zm-55.253-25.873c-.043.677-.1,1.149-.1,1.616-.009,4.009.047,8.013-.034,12.017-.026,1.308.373,1.741,1.685,1.8a54.275,54.275,0,0,1,21,5.179c4.733,2.285,9.213,5.1,14.088,7.833,3.79-2.757,7.983-5.8,12.279-8.934a77.339,77.339,0,0,0-48.921-19.52Zm-2.547,74.859a13.792,13.792,0,1,0-13.758-13.77,13.8,13.8,0,0,0,13.758,13.77Z" transform="translate(-106 -254.549)" fill="#13378e"/>
      <path id="Path_178" data-name="Path 178" d="M106,489.739a4.115,4.115,0,0,1,3.507-1.419c5.985.064,11.97.026,17.955.026.373,0,.75,0,1.123.021a2.215,2.215,0,0,1,2.285,2.221,2.086,2.086,0,0,1-2.011,2.448q-10.411.122-20.827-.03c-.682-.008-1.35-.879-2.028-1.35V489.73Z" transform="translate(-106 -388.097)" fill="#13378e"/>
      <path id="Path_179" data-name="Path 179" d="M233.467,557.238v5.526h49.371v-5.526h-31.82a12.072,12.072,0,0,1-1.762-.056c-1.213-.189-2.079-1-1.921-2.152a4.427,4.427,0,0,1,1.5-2.336c.382-.347,1.222-.253,1.852-.253q16.836-.019,33.676-.009c2.7,0,3.4.716,3.4,3.434q.013,4.328,0,8.66c-.013,2.311-.793,3.138-3.052,3.138q-26.54.019-53.075,0c-2.281,0-3.07-.819-3.082-3.108q-.026-4.489,0-8.982c.013-2.315.785-3.112,3.048-3.143,2.084-.026,4.171-.03,6.255,0,1.852.03,2.967.99,2.945,2.461s-1.119,2.324-3.014,2.341c-1.38.013-2.765,0-4.322,0Z" transform="translate(-176.01 -424.712)" fill="#13378e"/>
      <path id="Path_180" data-name="Path 180" d="M443.653,488.364c3.155,0,6.311-.017,9.466,0,1.788.013,2.842.892,2.877,2.315.039,1.479-1.063,2.469-2.915,2.478q-9.543.039-19.091,0c-2.294-.013-3.661-1.921-2.512-3.541a3.458,3.458,0,0,1,2.388-1.2c3.258-.137,6.521-.056,9.783-.056Z" transform="translate(-291.702 -388.111)" fill="#13378e"/>
      <path id="Path_181" data-name="Path 181" d="M452.327,512.55c1.175,0,2.349-.039,3.52.009a2.384,2.384,0,1,1,.039,4.767c-2.4.073-4.8.077-7.194,0a2.382,2.382,0,0,1,.12-4.763c1.17-.047,2.345-.009,3.52-.009Z" transform="translate(-300.453 -401.931)" fill="#13378e"/>
      <path id="Path_182" data-name="Path 182" d="M127.025,517.344c-1.119,0-2.242.043-3.357-.013a2.454,2.454,0,0,1-2.542-2.512,2.412,2.412,0,0,1,2.589-2.276c2.294-.034,4.587-.043,6.877,0a2.286,2.286,0,0,1,2.422,2.238,2.386,2.386,0,0,1-2.311,2.542,2.685,2.685,0,0,1-.322.013h-3.357Z" transform="translate(-114.639 -401.919)" fill="#13378e"/>
    </g>
    <line id="Line_4" data-name="Line 4" x2="154" transform="translate(1124 3329)" fill="none" stroke="#5fbc38" stroke-linecap="round" stroke-width="6"/>
  </g>
</svg>
