<svg xmlns="http://www.w3.org/2000/svg" width="160" height="184.475" viewBox="0 0 160 184.475">
  <g id="Group_66" data-name="Group 66" transform="translate(-700 -3147.525)">
    <g id="Artboard_1" data-name="Artboard 1" transform="translate(707.122 3147.525)">
      <path id="Path_164" data-name="Path 164" d="M237.639,240.89c.853.25,1.718.458,2.549.755a12.91,12.91,0,0,1,8.288,14.383h-4.907V254.31c-.021-5.2-3.151-8.343-8.335-8.347H148.351c-4.513,0-9.026-.013-13.539,0-4.814.017-8.093,3.185-8.1,7.983q-.038,40.318,0,80.635c0,3.8,1.96,6.324,5.684,7.7q-.592,2.354-1.179,4.67c-4.348-.522-8.61-5.03-9.353-9.849a22.282,22.282,0,0,1-.242-3.406q-.019-39.427-.008-78.85c0-7.491,3.431-11.91,10.706-13.806a1.2,1.2,0,0,0,.25-.153H237.63Z" transform="translate(-121.614 -240.89)" fill="#13378e"/>
      <path id="Path_165" data-name="Path 165" d="M278.271,372.545V357.331h5.064v1.578c0,7.342-.008,14.68.013,22.022a5.92,5.92,0,0,0,.3,2.027,34.626,34.626,0,0,1,1.879,16.818,3.837,3.837,0,0,0,.034.556h2.74V405.4h-3.716c-1.026,2.3-2.036,4.437-2.9,6.634-.14.352.25,1.082.6,1.434q8.748,8.824,17.551,17.585c1.752,1.752,3.52,3.491,5.255,5.264,1.455,1.489,1.472,2.778.021,4.258q-3.436,3.506-6.943,6.943c-1.552,1.523-2.782,1.489-4.356-.081q-11.007-10.981-22-21.98c-.348-.348-.708-.679-1.12-1.069a37.6,37.6,0,0,1-11.444,5.272,35.439,35.439,0,0,1-42.5-22.79,1.777,1.777,0,0,0-2.066-1.455c-10.366.047-20.732.025-31.094.025H181.87v-5.069h33.309c0-3.605-.136-7.062.055-10.5a18.328,18.328,0,0,1,1.234-5.332,15.178,15.178,0,0,0,.831-5.522c-.034-7.537-.013-15.079-.013-22.616v-1.7h5v18.132c1.675-1.552,3.317-3.02,4.873-4.572.276-.276.263-.916.263-1.391q.025-7.737.013-15.473v-1.743h5.018v14.765c1.692-.772,3.224-1.4,4.683-2.18.293-.157.428-.827.437-1.264.038-2.867.021-5.739.021-8.733h5.064v8.241l5.043-.7v-17.7h5.183V359.77c1.735.25,3.287.471,5,.721V337.01h5.149v1.752c0,7.342.021,14.68-.025,22.022a1.631,1.631,0,0,0,1.226,1.849c1.243.45,2.413,1.111,3.792,1.764V347.172h5.158v1.582c0,5.9.021,11.8-.021,17.7a2.956,2.956,0,0,0,1.145,2.681c1.408,1.082,2.706,2.307,3.953,3.389Zm-58.406,22.637a30.448,30.448,0,1,0,30.543-30.39A30.432,30.432,0,0,0,219.865,395.182Zm79.923,43.374c-7.168-7.168-14.273-14.277-21.415-21.42-1.141,1.26-2.363,2.613-3.533,3.9q10.625,10.625,21.22,21.224c1.23-1.222,2.515-2.507,3.724-3.711Z" transform="translate(-156.312 -296.24)" fill="#13378e"/>
      <path id="Path_166" data-name="Path 166" d="M203.243,390.359v5.013c-.551.025-1.035.068-1.518.068-10.264,0-20.533.021-30.8,0-6.54-.017-11.554-3.843-12.949-9.9a17.3,17.3,0,0,1-.352-3.834q-.032-39.65-.013-79.3c0-6.761,3.66-11.779,9.7-13.246a16.328,16.328,0,0,1,3.83-.407q49.995-.032,99.985-.013c8.059,0,13.446,5.387,13.45,13.429q.013,39.949.017,79.9a13.363,13.363,0,0,1-3.173,9.043c-1.251-1.094-2.46-2.159-3.813-3.342,2-2.2,1.913-4.873,1.913-7.563q-.032-38.835-.013-77.666c0-5.718-2.99-8.716-8.7-8.716H171.419c-5.73,0-8.712,2.973-8.712,8.708v79.155c0,5.718,2.99,8.682,8.733,8.687h31.807Z" transform="translate(-142.341 -268.437)" fill="#13378e"/>
      <path id="Path_167" data-name="Path 167" d="M222.647,433.1H217.74V402.77h4.907Z" transform="translate(-176.968 -334.108)" fill="#13378e"/>
      <path id="Path_168" data-name="Path 168" d="M241.65,420.68h4.916v22.709H241.65Z" transform="translate(-190.737 -344.422)" fill="#13378e"/>
      <path id="Path_169" data-name="Path 169" d="M193.93,438.72h4.835v15.053H193.93Z" transform="translate(-163.257 -354.81)" fill="#13378e"/>
      <path id="Path_170" data-name="Path 170" d="M150.767,264.97v4.878H145.83V264.97Z" transform="translate(-135.559 -254.756)" fill="#13378e"/>
      <path id="Path_171" data-name="Path 171" d="M169.79,269.912V265.03h4.895v4.882Z" transform="translate(-149.356 -254.791)" fill="#13378e"/>
      <path id="Path_172" data-name="Path 172" d="M193.78,269.943V265.07h4.9v4.873Z" transform="translate(-163.171 -254.814)" fill="#13378e"/>
      <path id="Path_173" data-name="Path 173" d="M229.77,312.88h4.878v4.933H229.77Z" transform="translate(-183.896 -282.345)" fill="#13378e"/>
      <path id="Path_174" data-name="Path 174" d="M186.793,317.864H181.92V312.94h4.874Z" transform="translate(-156.341 -282.38)" fill="#13378e"/>
      <path id="Path_175" data-name="Path 175" d="M205.75,317.816V312.93h4.929v4.886Z" transform="translate(-170.064 -282.374)" fill="#13378e"/>
      <path id="Path_176" data-name="Path 176" d="M308.777,414.53a25.388,25.388,0,1,1-25.347,25.483A25.38,25.38,0,0,1,308.777,414.53ZM311.292,420v19.893h-5.047V419.7c-1.438.361-2.579.67-3.733.925-1.022.225-1.4.742-1.387,1.854.068,5.255.03,10.51.025,15.766,0,.526-.051,1.052-.076,1.616h-5V424.307c-6.01,4.063-9.357,14.553-6.769,20.643h39.039c2.354-6.748-1.133-17.365-6.867-20.559v15.46h-5.047V425.066c0-4.53-.115-4.661-4.623-5.192a2.58,2.58,0,0,0-.517.127Zm15.045,30.2h-35.09c4.258,6.485,9.989,9.993,17.551,9.993S322.091,456.695,326.337,450.2Z" transform="translate(-214.795 -340.88)" fill="#13378e"/>
    </g>
    <line id="Line_3" data-name="Line 3" x2="154" transform="translate(703 3329)" fill="none" stroke="#5fbc38" stroke-linecap="round" stroke-width="6"/>
  </g>
</svg>
