<svg xmlns="http://www.w3.org/2000/svg" width="160" height="186.418" viewBox="0 0 160 186.418">
  <g id="Group_67" data-name="Group 67" transform="translate(-251.5 -3145.582)">
    <g id="Artboard_13" data-name="Artboard 13" transform="translate(266 3145.582)">
      <path id="Path_199" data-name="Path 199" d="M255.485,235.89a3.8,3.8,0,0,1,2.357,3.993c-.065,6.334-.037,12.672-.045,19.01,0,.294.012.591-.008.885a3.067,3.067,0,1,1-6.118-.086c-.029-3.83,0-7.663,0-11.493v-1.729c-.587.538-.979.869-1.342,1.232q-16.512,16.518-33.015,33.043c-2.451,2.455-3.585,2.455-6.012.016q-4.827-4.864-9.65-9.727c-.339-.343-.7-.669-1.15-1.1-4.18,4.2-8.291,8.353-12.419,12.48q-21.614,21.626-43.268,43.211a5.051,5.051,0,0,1-2.977,1.525,3.969,3.969,0,0,1-2.574-1.538,2.428,2.428,0,0,1,.151-3.022,9.417,9.417,0,0,1,1.085-1.2q28.49-28.5,56.992-57c2.312-2.312,3.764-2.312,6.105,0q5.182,5.133,10.363,10.265a1.094,1.094,0,0,0,.294.143q16.2-16.42,32.342-32.787h-2.467c-3.1,0-6.187.016-9.283.016-2.329,0-3.491-.681-3.944-2.3-.428-1.533.237-2.7,2.178-3.846h22.4Z" transform="translate(-138.802 -235.89)" fill="#13378e"/>
      <path id="Path_200" data-name="Path 200" d="M331.6,383.124c2.027-.261,3.858-.5,5.832-.755V334.632c0-2.753.962-3.76,3.687-3.781q5.377-.037,10.755,0c2.586.02,3.552,1.016,3.552,3.593q0,25.933-.024,51.866a2.515,2.515,0,0,0,1.154,2.288,29.869,29.869,0,0,1,11.069,31.567C364.157,432.706,355.8,440.382,343,442.6c-17.162,2.969-33.194-9.731-34.805-27.081a30.549,30.549,0,0,1,4.788-19.446,4.32,4.32,0,0,0,.587-2.182q.049-21.436.024-42.877c0-3.475.844-4.307,4.38-4.307,3.291,0,6.583-.012,9.874,0,2.724.012,3.748,1.036,3.752,3.728q.006,15.4,0,30.8v1.892Zm6.611,53.721a24.161,24.161,0,1,0-24.03-24.01A24.131,24.131,0,0,0,338.21,436.846Zm10.959-52.534V337.034h-5.616v44.125a2.824,2.824,0,0,0,.029,1.02c.139.343.416.783.726.873,1.587.469,3.2.84,4.866,1.26ZM319.861,352.9v35.682c1.546-.918,2.924-1.864,4.417-2.582a2,2,0,0,0,1.272-2.145c-.041-9.8-.02-19.613-.029-29.418,0-.514-.049-1.028-.073-1.538Z" transform="translate(-239.027 -292.11)" fill="#13378e"/>
      <path id="Path_201" data-name="Path 201" d="M281.269,443.184v26.375c0,3.267-.946,4.213-4.2,4.217-3.34,0-6.68.016-10.021,0-2.667-.016-3.8-1.113-3.8-3.748q-.018-26.961,0-53.925c0-2.533,1.171-3.691,3.7-3.711,3.487-.024,6.974-.016,10.461,0,2.769.012,3.85,1.077,3.854,3.838q.018,13.483,0,26.963Zm-6.2,24.422V418.619h-5.628v48.986Z" transform="translate(-212.487 -340.395)" fill="#13378e"/>
      <path id="Path_202" data-name="Path 202" d="M204.181,456.73V433.756c0-3.144.983-4.111,4.148-4.111,3.389,0,6.774-.008,10.163,0,2.52.008,3.7,1.162,3.7,3.691q.018,23.345,0,46.686c0,2.537-1.146,3.65-3.732,3.675q-5.3.049-10.6,0c-2.6-.024-3.671-1.1-3.675-3.7q-.024-11.636-.008-23.267Zm11.8,21.094V435.881h-5.64v41.943Z" transform="translate(-177.513 -350.621)" fill="#13378e"/>
      <path id="Path_203" data-name="Path 203" d="M145.081,507.767c0-3.434-.016-6.868.008-10.3.016-2.3,1.146-3.463,3.426-3.483q5.592-.049,11.183,0a3.1,3.1,0,0,1,3.381,3.414q.043,10.449,0,20.894c-.008,2.219-1.126,3.43-3.316,3.467-3.777.069-7.553.065-11.33.008-2.284-.037-3.332-1.207-3.348-3.552-.02-3.483,0-6.966,0-10.449Zm6.163,8.124h5.6V500.157h-5.6Z" transform="translate(-142.516 -388.705)" fill="#13378e"/>
      <path id="Path_204" data-name="Path 204" d="M365.637,484.752c0-.8-.053-1.578.012-2.357a3.06,3.06,0,0,1,2.912-2.8c1.452-.053,3.067,1,2.977,2.463-.151,2.48,1.183,3.609,2.965,4.89a8.822,8.822,0,0,1,3.5,7.015,3.122,3.122,0,0,1-2.786,3.524c-1.79.171-3.132-1.06-3.377-3.1-.269-2.243-1.64-3.642-3.638-3.715a3.782,3.782,0,0,0-3.928,3.075,3.9,3.9,0,0,0,3.614,4.6,15.222,15.222,0,0,1,3.181.5,9.9,9.9,0,0,1,1.8,18.088,1.907,1.907,0,0,0-1.232,1.88c.016,2.166-1.175,3.43-2.989,3.442-1.8.012-2.973-1.3-3.051-3.4-.012-.294-.029-.583-.041-.922-.461-.192-.918-.363-1.354-.567a9.744,9.744,0,0,1-6.02-8.565c-.163-2.027.885-3.414,2.631-3.6s3.124,1.077,3.365,3.112a3.81,3.81,0,0,0,3.352,3.7,3.785,3.785,0,0,0,1.277-7.455c-1.007-.2-2.06-.184-3.059-.416a9.736,9.736,0,0,1-7.517-8.605,9.867,9.867,0,0,1,5.836-10.127c.489-.216.987-.412,1.57-.648Z" transform="translate(-268.701 -380.202)" fill="#13378e"/>
    </g>
    <line id="Line_6" data-name="Line 6" x2="154" transform="translate(254.5 3329)" fill="none" stroke="#5fbc38" stroke-linecap="round" stroke-width="6"/>
  </g>
</svg>
